<svg xmlns="http://www.w3.org/2000/svg" xmlns:xlink="http://www.w3.org/1999/xlink" viewBox="0 0 1920 1080"><defs><style>.cls-1{fill:none;}.cls-2{isolation:isolate;}.cls-3{clip-path:url(#clip-path);}.cls-4{fill:#d6e8ff;}.cls-5{fill:#c2dbf3;}.cls-6{fill:#085787;}.cls-7{fill:#173d7a;}.cls-8{fill:#7fcef9;}.cls-66,.cls-67,.cls-68,.cls-9{fill:#fff;}.cls-10{fill:#5792cd;}.cls-11,.cls-66{opacity:0.3;}.cls-12{fill:#98bfef;}.cls-13{fill:#bad7f8;}.cls-14{fill:#ffce4d;}.cls-15{fill:#f5bf1c;}.cls-16{fill:#834d03;}.cls-17{fill:#ffd861;}.cls-18{fill:#b91b1c;}.cls-19{fill:#9a1f25;}.cls-20{fill:#604d3f;}.cls-21{fill:#8b7567;}.cls-22{fill:#929f14;}.cls-23{fill:#494f0e;}.cls-24{fill:#d52821;}.cls-25{fill:#ffc7c5;}.cls-26{fill:#e5e5e5;}.cls-27,.cls-28{fill:#589742;}.cls-28,.cls-30,.cls-33{opacity:0.5;}.cls-28,.cls-30,.cls-31,.cls-33,.cls-36,.cls-37,.cls-64{mix-blend-mode:multiply;}.cls-29,.cls-30,.cls-37,.cls-53{fill:#95c440;}.cls-31,.cls-34{fill:#68b245;}.cls-32,.cls-33{fill:#d6b328;}.cls-35{fill:#3d9d47;}.cls-38{fill:#f0ce37;}.cls-39{fill:#6c8238;}.cls-40{fill:#e08d40;}.cls-41{fill:#87bc40;}.cls-41,.cls-52,.cls-53{mix-blend-mode:screen;}.cls-42{fill:#e0cbba;}.cls-43{fill:#f09997;}.cls-44{fill:#f2aaa0;}.cls-45{fill:#ec7d88;}.cls-46{fill:#ba2b26;}.cls-47{fill:#e63527;}.cls-48{fill:#ec533c;}.cls-49{fill:#c72e27;}.cls-50{fill:#fbbb60;}.cls-51{fill:#ca752c;}.cls-54{fill:#ef5f22;}.cls-55{fill:#f27421;}.cls-56{fill:#ad529a;}.cls-57{fill:#bb569e;}.cls-58{fill:#f1f2f2;}.cls-59{fill:#f3a21d;}.cls-60{fill:#f6941d;}.cls-61{fill:#f7d0a0;}.cls-62{fill:#d69556;}.cls-63{fill:#971c1f;}.cls-64{fill:#7c1516;opacity:0.4;}.cls-65{fill:#f6dbc7;}.cls-66{mix-blend-mode:overlay;}.cls-67{opacity:0.27;}.cls-68{opacity:0.41;}.cls-69{fill:#f8950d;}.cls-70{fill:#f8d8a5;}.cls-71{fill:#ffd75c;}.cls-72{fill:#f8edd1;}.cls-73{fill:url(#Áåçûìÿííûé_ãðàäèåíò_60);}.cls-74{fill:url(#Áåçûìÿííûé_ãðàäèåíò_60-2);}.cls-75{fill:url(#Áåçûìÿííûé_ãðàäèåíò_60-4);}.cls-76{fill:#faf8ea;}.cls-77{fill:#3c2415;}.cls-78{fill:#754c29;}.cls-79{fill:#b96000;}.cls-80{fill:#2b5e84;}.cls-81{fill:#ffc6b2;}.cls-82{fill:#0f2034;}.cls-83{fill:#1d374e;}.cls-84{fill:#d0d2d3;}.cls-85{fill:#703e03;}.cls-86{fill:#6ec3e9;}.cls-87{fill:#d27809;}.cls-88{fill:#0f4b6a;}.cls-89{fill:#026a9d;}.cls-90{fill:#dd5b08;}.cls-91{fill:#f47319;}.cls-92{fill:#caebf4;}.cls-93{fill:#0a4156;}.cls-94{fill:#274459;}.cls-95{fill:#c89f82;}.cls-96{fill:#39b9f8;}.cls-97{fill:#f2fbfc;}.cls-98{fill:#606060;opacity:0.14;}</style><clipPath id="clip-path"><rect class="cls-1" width="1920" height="1080"/></clipPath><linearGradient id="Áåçûìÿííûé_ãðàäèåíò_60" x1="1195.71" y1="636.71" x2="1193.73" y2="740.37" gradientUnits="userSpaceOnUse"><stop offset="0" stop-color="#f8cebe"/><stop offset="1" stop-color="#e192d2"/></linearGradient><linearGradient id="Áåçûìÿííûé_ãðàäèåíò_60-2" x1="1307.11" y1="638.86" x2="1305.12" y2="742.41" xlink:href="#Áåçûìÿííûé_ãðàäèåíò_60"/><linearGradient id="Áåçûìÿííûé_ãðàäèåíò_60-4" x1="1307.08" y1="638.85" x2="1305.09" y2="742.44" xlink:href="#Áåçûìÿííûé_ãðàäèåíò_60"/></defs><g class="cls-2"><g id="BMR"><g class="cls-3"><rect class="cls-4" width="1920" height="1080"/><path class="cls-5" d="M1920,0V12.82c-41.72,73.88-92.92,140.56-160.28,192.4C1543.89,371.32,1216.27,342,1016.82,527.4c-100,93-156,231.17-271.26,304.43-76.34,48.52-169.45,62.11-259.74,67.51s-182,3.87-269.53,26.6C129.84,948.38,45.45,999.27,7.73,1080c-.49,1-1,2.06-1.43,3.1l0-3.1L0,0Z"/><path class="cls-6" d="M1419.2,438.47V422.18h-4.85c-4.35-7.49-11.59-14.54-21.92-20.51-35.69-20.61-93.56-20.61-129.25,0-10.33,6-17.57,13-21.92,20.51h-4.84v16.15h0c-.06,13.55,8.85,27.11,26.76,37.45,35.69,20.61,93.55,20.61,129.24,0C1410.28,465.48,1419.2,452,1419.2,438.47Z"/><path class="cls-7" d="M1392.43,401.67c-32-18.46-81.7-20.33-117.38-5.71v85.53c35.68,14.62,85.41,12.75,117.38-5.71,17.85-10.3,26.77-23.8,26.77-37.31V422.18h-4.85C1410,414.69,1402.76,407.64,1392.43,401.67Z"/><ellipse class="cls-8" cx="1327.81" cy="422.18" rx="91.39" ry="52.76"/><path class="cls-9" d="M1392.43,459.49c-35.69,20.6-93.55,20.6-129.24,0-17.11-9.88-25.92-22.7-26.63-35.64-.78,14.06,8,28.27,26.63,39,35.69,20.61,93.55,20.61,129.24,0,18.59-10.72,27.4-24.92,26.63-39C1418.35,436.79,1409.53,449.61,1392.43,459.49Z"/><path class="cls-10" d="M1386.36,423.28c-3.84,2.24-9.67,2.5-13,.59L1317.65,392a3.88,3.88,0,0,1-2.26-3.22h0l-.06-114.48,74.08,31.14.1,113.32a3,3,0,0,1,0,.67h0C1389.34,420.77,1388.28,422.17,1386.36,423.28Z"/><polygon class="cls-10" points="1315.35 316.08 1315.37 360.56 1389.49 403.35 1389.45 346.79 1325.8 310.05 1315.35 316.08"/><path class="cls-7" d="M1389.41,305.42l.1,113.32a3,3,0,0,1,0,.67h0c-.17,1.36-1.23,2.76-3.15,3.87a14.82,14.82,0,0,1-6.37,1.83l-.31-123.78Z"/><path class="cls-7" d="M1387.16,301.89,1331.46,270c-3.34-1.92-9.17-1.65-13,.58h0c-3.84,2.24-4.25,5.61-.91,7.52l55.7,31.89c3.34,1.92,9.17,1.66,13-.58h0C1390.1,307.17,1390.5,303.8,1387.16,301.89Z"/><path class="cls-9" d="M1373.31,310.72l-55.69-31.89a3.83,3.83,0,0,1-2.26-3.31,4.19,4.19,0,0,0,2.18,2.58l55.7,31.89c3.34,1.92,9.17,1.66,13-.58h0c2.08-1.21,3.14-2.75,3.16-4.21.4,1.66-.66,3.53-3.08,4.94h0C1382.48,312.38,1376.66,312.64,1373.31,310.72Z"/><path class="cls-6" d="M1642.1,79,1099.69-234.21c-5-2.88-9.54-3.06-13-1.07v0l-17,9.83L1080-224a31,31,0,0,0-.38,5V155.48c0,14.76,9,31.9,20,38.3l541.58,312.68-2.76,11.2,16.7-9.66h0c4.26-2.44,7-8.12,7-16.2V117.26C1662.15,102.5,1653.17,85.35,1642.1,79Z"/><path class="cls-7" d="M1655.21,508h0c4.26-2.44,7-8.12,7-16.2V117.26a48.72,48.72,0,0,0-5-20.27L1294.63,306.32l346.64,200.14-2.76,11.2Z"/><path class="cls-8" d="M1624.91,516.9,1082.49,203.74c-11.07-6.4-20-23.54-20-38.3V-209.09c0-14.76,9-21.55,20-15.16L1624.91,88.92c11.07,6.39,20,23.54,20,38.3V501.75C1645,516.51,1636,523.29,1624.91,516.9Z"/><path class="cls-9" d="M1627.59,88.06,1085.17-225.1c-4.71-2.72-9-3-12.45-1.38,2.89-.49,6.22.18,9.77,2.23L1624.91,88.92c11.07,6.39,20,23.54,20,38.3V501.74c0,8.48-3,14.31-7.58,16.54,6.12-1,10.26-7.37,10.26-17.39V126.36C1647.63,111.6,1638.66,94.45,1627.59,88.06Z"/><path class="cls-9" d="M1633.7,116.84V499.13c0,5.22-3.18,7.62-7.1,5.36L1080.8,189.37c-3.92-2.27-7.1-8.33-7.1-13.56V-206.47c0-5.22,3.18-7.63,7.1-5.36l545.8,315.12C1630.52,105.55,1633.7,111.62,1633.7,116.84Z"/><ellipse class="cls-11" cx="1299.72" cy="676.86" rx="110.67" ry="51.81"/><ellipse class="cls-11" cx="902.08" cy="492.33" rx="42.34" ry="19.82"/><ellipse class="cls-11" cx="983.2" cy="418.95" rx="93.92" ry="43.97"/><path class="cls-11" d="M1333,1044.24l94.6,54.78a56.11,56.11,0,0,0,56.77-.31l339.68-201.64a23.4,23.4,0,0,0-.58-40.57l-60-33.31Z"/><path class="cls-12" d="M962.58,791.92c-35-20.18-91.44-20.28-126.17-.23-24.4,14.09-31.54,34.37-21.54,52.19,4.18-7.42,11.34-14.39,21.54-20.28,34.73-20.05,91.22-20,126.17.23,10.4,6,17.7,13.11,21.94,20.66C994.59,826.64,987.28,806.18,962.58,791.92Z"/><path class="cls-13" d="M1009.85,955.18q-15.42,4.41-31.59,7.51l9.3,29.91c7.54-1.64,15-3.42,22.29-5.51l32.92,27.1a365.7,365.7,0,0,0,49.29-19V963.28a365.7,365.7,0,0,1-49.29,19Z"/><path class="cls-13" d="M1133.61,939.29l-48.31-17.83c-3.72,2.47-7.54,4.89-11.59,7.24s-8.26,4.55-12.53,6.69L1082.84,955c.82-.53,1.65-1.05,2.46-1.59l48.31,17.83a204,204,0,0,0,32.9-28.45V910.84A203.51,203.51,0,0,1,1133.61,939.29Z"/><path class="cls-13" d="M930.11,1001.77l-12.54-32.25c-11.39.43-22.82.41-34.22-.07l-12.19,32.21a503.86,503.86,0,0,1-58.33-6.78v31.91a503.86,503.86,0,0,0,58.33,6.78l12.19-32.21c11.4.48,22.83.5,34.22.06l12.54,32.26a499.6,499.6,0,0,0,58.26-6.58V995.2A501.77,501.77,0,0,1,930.11,1001.77Z"/><path class="cls-13" d="M1200.28,845.79a112.43,112.43,0,0,1-11.39,33.64l-56.31-5.84a118.26,118.26,0,0,1-13,18.24l40.89,16.56,28.42,2.94a112.37,112.37,0,0,0,11.39-33.63V845.79Z"/><path class="cls-13" d="M822.59,962.41c-10.79-2.1-21.37-4.64-31.67-7.63l-32.63,27a370.12,370.12,0,0,1-49.5-19.17V994.5a370.12,370.12,0,0,0,49.5,19.17l32.63-27c7.41,2.15,15,4,22.67,5.67Z"/><path class="cls-13" d="M680.5,891a120.19,120.19,0,0,1-13.2-18.28l-56.25,5.63a113.41,113.41,0,0,1-11.75-33.67h0v31.91a113.56,113.56,0,0,0,11.75,33.68l28.85-2.89Z"/><path class="cls-13" d="M717.77,954.43l21.6-19.62c-4.29-2.16-8.52-4.38-12.6-6.74s-7.93-4.8-11.67-7.27L667,938.45a208.24,208.24,0,0,1-33.21-28.57h0v31.91A208.28,208.28,0,0,0,667,970.36L715.1,952.7C716,953.28,716.88,953.85,717.77,954.43Z"/><polygon class="cls-12" points="1200.09 811.76 1200.09 843.67 1145.33 851.74 1144.3 818.8 1200.09 811.76"/><polygon class="cls-12" points="1165.62 746.59 1165.62 778.5 1118.89 797.34 1118.89 765.43 1165.62 746.59"/><polygon class="cls-12" points="1090.6 693.88 1090.6 725.78 1060.02 753.56 1060.02 721.65 1090.6 693.88"/><polygon class="cls-12" points="986.56 661.58 986.56 693.49 976.8 725.97 976.8 694.06 986.56 661.58"/><polygon class="cls-12" points="811.02 661.27 811.02 693.17 821.13 725.68 821.13 693.77 811.02 661.27"/><polygon class="cls-12" points="707.33 693.18 707.33 725.09 738.21 752.98 738.21 721.07 707.33 693.18"/><polygon class="cls-12" points="632.88 745.63 632.88 777.53 679.81 796.54 679.81 764.63 632.88 745.63"/><polygon class="cls-12" points="599.11 810.67 599.11 842.58 654.98 849.82 654.98 817.91 599.11 810.67"/><polygon class="cls-12" points="611.05 878.38 611.05 910.29 667.3 904.66 667.3 872.75 611.05 878.38"/><polygon class="cls-12" points="715.1 920.79 715.1 952.71 666.98 970.36 666.98 938.45 715.1 920.79"/><polygon class="cls-12" points="790.92 954.78 790.92 986.69 758.28 1013.67 758.28 981.76 790.92 954.78"/><polygon class="cls-12" points="917.57 1001.42 917.57 969.51 930.11 1001.77 930.11 1033.68 917.57 1001.42"/><polygon class="cls-12" points="883.36 969.45 883.36 1001.36 871.16 1033.57 871.16 1001.66 883.36 969.45"/><polygon class="cls-12" points="1009.85 955.18 1009.85 987.09 1042.77 1014.18 1042.77 982.28 1009.85 955.18"/><polygon class="cls-12" points="1085.3 921.47 1085.3 953.37 1133.61 971.2 1133.61 939.29 1085.3 921.47"/><polygon class="cls-12" points="1132.58 873.59 1132.58 905.5 1188.89 911.34 1188.89 879.43 1132.58 873.59"/><path class="cls-13" d="M1073.71,928.7c4-2.35,7.87-4.77,11.59-7.24l48.31,17.83a203.51,203.51,0,0,0,32.9-28.45l-46.94-19a117.67,117.67,0,0,0,13-18.24l56.31,5.84a112.52,112.52,0,0,0,11.39-33.64l-55.87-7.24a82.59,82.59,0,0,0-.11-19.75l55.79-7a113.75,113.75,0,0,0-11.75-33.68l-56.25,5.63a121.38,121.38,0,0,0-13.2-18.28l46.73-18.84A208.28,208.28,0,0,0,1132.41,718l-48.12,17.66c-3.74-2.48-7.59-4.92-11.67-7.28s-8.31-4.58-12.6-6.73l30.58-27.79a370.12,370.12,0,0,0-49.5-19.17l-32.63,27c-10.3-3-20.88-5.53-31.67-7.62l9.76-32.48a503.77,503.77,0,0,0-58.34-6.78L916,687c-11.39-.48-22.82-.5-34.21-.06l-12.54-32.26A499.6,499.6,0,0,0,811,661.27l10.11,32.51q-16.14,3.08-31.59,7.5l-32.92-27.1a365.7,365.7,0,0,0-49.29,19l30.88,27.89c-4.27,2.15-8.47,4.35-12.53,6.69s-7.88,4.77-11.59,7.24l-48.31-17.83a204,204,0,0,0-32.9,28.45l46.93,19a118.74,118.74,0,0,0-13,18.24L610.5,777a112.09,112.09,0,0,0-11.39,33.63L655,817.91a82.59,82.59,0,0,0,.11,19.75l-55.79,7a113.47,113.47,0,0,0,11.75,33.68l56.25-5.63A120.19,120.19,0,0,0,680.5,891l-46.73,18.84A207.77,207.77,0,0,0,667,938.45L715.1,920.8c3.74,2.47,7.59,4.91,11.67,7.27s8.31,4.58,12.6,6.74l-30.58,27.78a370.51,370.51,0,0,0,49.49,19.17l32.64-27c10.3,3,20.88,5.53,31.67,7.63l-9.76,32.47a503.86,503.86,0,0,0,58.33,6.78l12.19-32.21c11.4.48,22.83.5,34.22.07l12.54,32.25a501.77,501.77,0,0,0,58.26-6.57l-10.11-32.51q16.14-3.09,31.59-7.51l32.92,27.1a365.7,365.7,0,0,0,49.29-19l-30.88-27.89C1065.45,933.25,1069.65,931,1073.71,928.7ZM836.8,864.54c-34.95-20.18-35.12-52.79-.39-72.85s91.22-20,126.17.23,35.13,52.79.4,72.85S871.76,884.72,836.8,864.54Z"/><path class="cls-12" d="M592.06,622.23c-15.68-9.06-41-9.11-56.63-.11-10.95,6.33-14.16,15.43-9.67,23.43a25.25,25.25,0,0,1,9.67-9.1c15.59-9,41-9,56.63.1,4.67,2.69,8,5.89,9.85,9.27C606.43,637.81,603.15,628.63,592.06,622.23Z"/><path class="cls-13" d="M613.28,695.51c-4.61,1.32-9.35,2.44-14.18,3.37l4.17,13.42c3.39-.73,6.74-1.53,10-2.47L628.06,722a164.37,164.37,0,0,0,22.12-8.53V699.14a164.37,164.37,0,0,1-22.12,8.53Z"/><path class="cls-13" d="M668.83,688.38l-21.69-8c-1.66,1.11-3.38,2.2-5.2,3.25s-3.71,2-5.62,3l9.72,8.79,1.1-.71,21.69,8a92.34,92.34,0,0,0,14.77-12.77V675.6A91.88,91.88,0,0,1,668.83,688.38Z"/><path class="cls-13" d="M577.49,716.42l-5.63-14.48c-5.12.2-10.25.19-15.36,0L551,716.37a226.2,226.2,0,0,1-26.18-3v14.32a226.2,226.2,0,0,0,26.18,3l5.47-14.45c5.11.21,10.24.22,15.36,0l5.63,14.48a225.63,225.63,0,0,0,26.15-3V713.47A225.63,225.63,0,0,1,577.49,716.42Z"/><path class="cls-13" d="M698.75,646.41a50.09,50.09,0,0,1-5.11,15.09l-25.27-2.62a53,53,0,0,1-5.84,8.19l18.35,7.43,12.76,1.33a50.14,50.14,0,0,0,5.11-15.1V646.41Z"/><path class="cls-13" d="M529.22,698.75c-4.84-.94-9.59-2.08-14.21-3.42l-14.65,12.11a165.84,165.84,0,0,1-22.21-8.61v14.32a164.5,164.5,0,0,0,22.21,8.61L515,709.65c3.32,1,6.73,1.79,10.18,2.54Z"/><path class="cls-13" d="M465.45,666.71a54.32,54.32,0,0,1-5.93-8.2L434.27,661A50.92,50.92,0,0,1,429,645.92h0v14.32a51.08,51.08,0,0,0,5.27,15.12l13-1.3Z"/><path class="cls-13" d="M482.18,695.17l9.69-8.81c-1.92-1-3.82-2-5.65-3s-3.56-2.16-5.24-3.27L459.38,688a93.86,93.86,0,0,1-14.91-12.83h0v14.32a93.86,93.86,0,0,0,14.91,12.83L481,694.4Z"/><polygon class="cls-12" points="698.67 631.13 698.67 645.45 674.09 649.08 673.63 634.29 698.67 631.13"/><polygon class="cls-12" points="683.2 601.88 683.2 616.2 662.22 624.66 662.22 610.33 683.2 601.88"/><polygon class="cls-12" points="649.52 578.22 649.52 592.54 635.8 605.01 635.8 590.69 649.52 578.22"/><polygon class="cls-12" points="602.82 563.72 602.82 578.04 598.45 592.62 598.45 578.3 602.82 563.72"/><polygon class="cls-12" points="524.03 563.58 524.03 577.9 528.57 592.5 528.57 578.17 524.03 563.58"/><polygon class="cls-12" points="477.49 577.91 477.49 592.23 491.35 604.75 491.35 590.43 477.49 577.91"/><polygon class="cls-12" points="444.07 601.45 444.07 615.77 465.14 624.3 465.14 609.98 444.07 601.45"/><polygon class="cls-12" points="428.92 630.64 428.92 644.97 453.99 648.22 453.99 633.89 428.92 630.64"/><polygon class="cls-12" points="434.27 661.03 434.27 675.36 459.52 672.83 459.52 658.51 434.27 661.03"/><polygon class="cls-12" points="480.98 680.07 480.98 694.4 459.38 702.32 459.38 688 480.98 680.07"/><polygon class="cls-12" points="515.01 695.33 515.01 709.65 500.36 721.76 500.36 707.44 515.01 695.33"/><polygon class="cls-12" points="571.86 716.26 571.86 701.94 577.49 716.42 577.49 730.74 571.86 716.26"/><polygon class="cls-12" points="556.5 701.91 556.5 716.24 551.03 730.69 551.03 716.37 556.5 701.91"/><polygon class="cls-12" points="613.28 695.51 613.28 709.83 628.06 721.99 628.06 707.67 613.28 695.51"/><polygon class="cls-12" points="647.14 680.37 647.14 694.7 668.83 702.7 668.83 688.38 647.14 680.37"/><polygon class="cls-12" points="668.37 658.88 668.37 673.21 693.64 675.83 693.64 661.5 668.37 658.88"/><path class="cls-13" d="M641.94,683.62c1.82-1,3.54-2.14,5.2-3.25l21.69,8A91.88,91.88,0,0,0,683.6,675.6l-21.07-8.53a53,53,0,0,0,5.84-8.19l25.27,2.62a50.09,50.09,0,0,0,5.11-15.09l-25.07-3.25a37.07,37.07,0,0,0,0-8.87l25-3.16A51.1,51.1,0,0,0,693.39,616l-25.24,2.53a54.9,54.9,0,0,0-5.93-8.21l21-8.45a93.86,93.86,0,0,0-14.91-12.83L646.69,597c-1.68-1.12-3.4-2.21-5.24-3.27s-3.73-2.05-5.65-3l13.72-12.47a165.84,165.84,0,0,0-22.21-8.61l-14.65,12.11c-4.62-1.34-9.37-2.48-14.22-3.42l4.38-14.58a226.2,226.2,0,0,0-26.18-3l-5.47,14.45c-5.12-.21-10.25-.22-15.36,0l-5.63-14.48a225.63,225.63,0,0,0-26.15,3l4.54,14.59c-4.83.93-9.57,2.05-14.18,3.37l-14.78-12.16a164.37,164.37,0,0,0-22.12,8.53l13.86,12.52c-1.91,1-3.8,2-5.62,3s-3.54,2.14-5.2,3.25l-21.69-8a91.88,91.88,0,0,0-14.77,12.78L465.14,610a53,53,0,0,0-5.84,8.19L434,615.54a50.14,50.14,0,0,0-5.11,15.1L454,633.89a37.07,37.07,0,0,0,.05,8.87l-25,3.16A50.92,50.92,0,0,0,434.27,661l25.25-2.52a54.32,54.32,0,0,0,5.93,8.2l-21,8.46A93.86,93.86,0,0,0,459.38,688l21.6-7.93c1.68,1.11,3.4,2.21,5.24,3.27s3.73,2,5.65,3l-13.72,12.47a165.84,165.84,0,0,0,22.21,8.61L515,695.33c4.62,1.34,9.37,2.48,14.22,3.42l-4.38,14.58a226.2,226.2,0,0,0,26.18,3l5.47-14.46c5.11.22,10.24.23,15.36,0l5.63,14.48a225.63,225.63,0,0,0,26.15-2.95l-4.54-14.59c4.83-.93,9.57-2,14.18-3.37l14.78,12.16a164.37,164.37,0,0,0,22.12-8.53l-13.86-12.52C638.23,685.66,640.12,684.67,641.94,683.62Zm-106.33-28.8c-15.69-9.06-15.77-23.69-.18-32.7s41-9,56.63.11,15.77,23.69.18,32.69S551.29,663.88,535.61,654.82Z"/><path class="cls-14" d="M882.42,333.05s11.68,56.88,72.48,71.26,106.11-35.08,106.25-52.62c0,0,22.72-16.07,27.74-19.19L1078.5,327s-20.32,17.47-22,16.67-8.15-3.1-26.21,3.18-82.77,25.93-124.09-23Z"/><path class="cls-15" d="M1040.42,371.87a141.35,141.35,0,0,1-14.58,7.39c-8.27,3.64-16.72,7.61-25.67,9.18-12.42,2.17-22.21,2.57-34.37.92-12.52-1.7-21.72-4.9-33.46-10.31-8.73-4-16.19-10.39-23.45-16.59S896.17,348,891.16,340.18a40.24,40.24,0,0,1-4.21-8.87l-4.53,1.74s11.68,56.88,72.48,71.26c53.63,12.69,95.21-24.31,104.36-45.24A161,161,0,0,1,1040.42,371.87Z"/><path class="cls-16" d="M1088.89,332.5s-4.88,2-8.17.23-2.22-5.69-2.22-5.69,5.15-1.9,8-.08S1088.89,332.5,1088.89,332.5Z"/><path class="cls-16" d="M906.16,323.93a20.46,20.46,0,0,1-8.27,11.87c-6.73,4.38-15.47-2.75-15.47-2.75s1.18-8.82,5.2-11.41S903.23,320.64,906.16,323.93Z"/><path class="cls-17" d="M1027.56,351.93s-54.19,27-105.59-9c0,0,31.8,28.74,60.86,27.14S1027.56,351.93,1027.56,351.93Z"/><path class="cls-14" d="M895.07,395.38s28.61,50.54,90.88,45.53,90.18-66,84.92-82.74c0,0,16.69-22.28,20.5-26.79l-11.57-2s-14,22.87-15.85,22.64-8.71-.44-24,11.08-70.79,50.12-125.14,16.31Z"/><path class="cls-15" d="M1057.35,383.75a140,140,0,0,1-11.6,11.51c-6.75,6-13.57,12.38-21.61,16.63-11.15,5.88-20.34,9.28-32.41,11.44-12.44,2.24-22.18,2-35,.48-9.55-1.15-18.61-4.91-27.42-8.58s-16.53-9.81-23.73-15.74a41.39,41.39,0,0,1-6.73-7.15l-3.77,3s28.61,50.54,90.88,45.53c54.94-4.42,83.12-52.4,85.39-75.14A161.71,161.71,0,0,1,1057.35,383.75Z"/><path class="cls-16" d="M1091.37,331.38s-4,3.42-7.71,2.73-3.86-4.73-3.86-4.73,4.32-3.39,7.56-2.52S1091.37,331.38,1091.37,331.38Z"/><path class="cls-16" d="M914.85,379.41a20.4,20.4,0,0,1-4.22,13.83c-5.06,6.25-15.56,2.14-15.56,2.14s-1.59-8.75,1.44-12.45S911.06,377.17,914.85,379.41Z"/><path class="cls-17" d="M1039,368.72s-43.26,42.34-103.25,23.88c0,0,39.1,17.57,66.26,7.12S1039,368.72,1039,368.72Z"/><path class="cls-18" d="M869.71,471a37.62,37.62,0,0,0,27.62,16.17c19,1.82,34.85-8.27,40.44-29.27s8.79-42.75-18.17-52.06-54,1.52-58.42,20.76S869.71,471,869.71,471Z"/><path class="cls-19" d="M891.5,415.8s4.46,5.19,12.76,2.25,4.1-7.16-2.94-8.3S886.61,409.5,891.5,415.8Z"/><path class="cls-20" d="M899.93,418.94s-14.09-19.26-12.9-29.28c0,0,2.14,2.11,4.88-.46,0,0,1.75,18,10.51,29.39C902.42,418.59,900.48,418.92,899.93,418.94Z"/><path class="cls-21" d="M887,389.66s.46-2.1,1.78-2.06,3.1,1.6,3.1,1.6S889.32,392.08,887,389.66Z"/><path class="cls-22" d="M896.34,413.6s-14.07,5.61-23.87-5.88-13.07-11.29-13.07-11.29,10.15-4.38,19.71-1,12.45,9.88,12.45,9.88Z"/><path class="cls-23" d="M891.29,405.74a27.28,27.28,0,0,0,2.1,4.79,36.7,36.7,0,0,1,2.07,3.37c.56-.17.88-.3.88-.3l-4.78-8.3a12.61,12.61,0,0,0-1.63-2.51A31.7,31.7,0,0,1,891.29,405.74Z"/><path class="cls-24" d="M874.32,464s5.92,14.67,20.26,17.48S917,465.29,917.3,456.68s.1-28.61-17-34.45-19.81-7.62-22.93-6.1S874.32,464,874.32,464Z"/><path class="cls-25" d="M872.5,418.94s-9.38,9-3.43,31.51,13.8,20.14,10.26,8.92-.8-30.78,1.85-37.63S878,414.12,872.5,418.94Z"/><ellipse class="cls-11" cx="1111.44" cy="539.64" rx="160.12" ry="95.32"/><ellipse class="cls-9" cx="1111.44" cy="522.38" rx="160.12" ry="95.32"/><ellipse class="cls-26" cx="1111.44" cy="522.38" rx="139.82" ry="83.24"/><path class="cls-27" d="M1024.58,532.89s-13.31-15.26,5.85-31.83,85.09-37,115.29-28.25,48.72,22.41,49.36,38-48.71,38-66.89,45.14-33.78,5.52-46.45,1S1024.58,532.89,1024.58,532.89Z"/><path class="cls-28" d="M1145.11,473c-30.19-8.77-96.13,11.69-115.29,28.25s-5.84,31.83-5.84,31.83,44.49,19.49,57.16,24,28.25,6.17,46.44-1,67.55-29.55,66.9-45.14S1175.32,481.78,1145.11,473ZM1033.6,520.58c-2.43.09-4.32-1.49-4.07-4.05.13-1.44,1.48-2.12,2.7-2.56,1.94-.69,4.09-.41,6.07-1,.08,0,.11,0,.13.09C1039.12,516.46,1037.56,520.43,1033.6,520.58ZM1095,497.83c-1,1.55-3,1.64-4.59,2.28a10.5,10.5,0,0,0-4.84,3.9,5.87,5.87,0,0,1-1.55,1.63c-1.66.92-.49-1.81-.43-2.38.19-1.76-.57-3.6.14-5.31a4.52,4.52,0,0,1,3-2.67,19.33,19.33,0,0,1,4.09-.44c1.17,0,3-.14,4,.69A1.7,1.7,0,0,1,1095,497.83Zm27.9,46.49c-3.26,2.72-7.42,3.89-11.58,4.28a.07.07,0,0,1-.07,0,12.45,12.45,0,0,1,.54-7.24c.55-1.6,1.65-2.94,2.15-4.56.27-.87-.12-1.7,0-2.57s.75-1.09,1.3-1.64c.77-.74,1.6-1.41,2.33-2.19a10.57,10.57,0,0,1,3.62-2.82c3.91-1.6,5.45,3.18,5.73,6.24A12,12,0,0,1,1122.89,544.32Zm53.44-31c-2.16,2.1-6.22,3.8-9.23,2.87a3.65,3.65,0,0,1-2.75-3.43c-.12-1.91.3-3.92-.16-5.8-.62-2.6-.89-5.39,1.15-7.5.86-.88,2,1.39,2.27,1.95.74,1.31,1.6,2.61,3.25,2.7,2.29.13,4.13-.14,6.15,1.24C1180.24,507.6,1178.71,511.05,1176.33,513.35Z"/><path class="cls-27" d="M1034.88,513.92a6.76,6.76,0,0,0-3.21.83c-.91,1.44-1.38,3.45.39,4.46a4.69,4.69,0,0,0,4.1.18c2.3-1,2.94-3.42,2.47-5.74C1038.58,513.41,1035.22,513.89,1034.88,513.92Z"/><path class="cls-29" d="M1039,545.59s-15.64,4.57-25.3,16c-3.87,2.81-7.46.63-10.54,4.65s1.34,7.63,5.76,6.29,5.69-1.34,4.62,1.61-.27,7.09,3.21,7.56,3.55-3.35,5.76-2.88,2.42,3,2.34,5,3.93,5.81,7.77,4.73,4.46-.09,5.72,1.34,3,2.33,4.65,1.34,1.78-.8,1.52-3.48,8.45-18.35,11.43-24.55,3.7-7.39,6.2-6.07,6.67-3.34.83-10S1044.7,543.56,1039,545.59Z"/><path class="cls-30" d="M1063,547.14a9.46,9.46,0,0,0-1-.95c-1.16,2.58-3.72,3.56-6.19,4.89-3.83,2-8,3.09-12,4.75-3.81,1.58-7.57,3.52-11.31,5.26a18.93,18.93,0,0,0-6.48,4.35,26.33,26.33,0,0,0-3.57,6.52c-1.34,2.92-3.11,5.43-6.09,6.88a14.58,14.58,0,0,1-2.53.95,3.82,3.82,0,0,0,2.87,1.9c3.48.47,3.55-3.35,5.76-2.88s2.42,3,2.34,5,3.93,5.81,7.77,4.73,4.46-.09,5.72,1.34,3,2.33,4.65,1.34,1.78-.8,1.52-3.48,8.45-18.35,11.43-24.55,3.7-7.39,6.2-6.07S1068.82,553.81,1063,547.14Z"/><path class="cls-31" d="M1029.86,563.34s1.33-1,3.47-2.4c.53-.35,1.12-.7,1.74-1.07s1.27-.78,2-1.16l2.16-1.14c.73-.39,1.49-.78,2.26-1.12l2.3-1c.74-.37,1.52-.64,2.26-.93l2.14-.79,1-.37.95-.29c1.21-.36,2.23-.63,2.94-.83l1.12-.3-1.07.44c-.69.26-1.66.66-2.85,1.09l-.92.34-1,.42-2.09.9c-.73.3-1.48.61-2.22,1l-2.27,1.06c-.77.34-1.52.71-2.26,1.09l-2.17,1.08c-1.39.74-2.72,1.39-3.81,2s-2,1.09-2.67,1.47Z"/><path class="cls-32" d="M1038.81,524.32s0-18,24.27-24.76c13.35,1,16.75,13.35,16.75,13.35L1059.68,536Z"/><path class="cls-33" d="M1063.08,499.56a42.42,42.42,0,0,0-12.25,5.47h0c4.25-.41,8.84-.54,13,.76,2,.62,8.23,3.68,6.07,6.56-1.28,1.7-3.48,2.45-5,3.93a55,55,0,0,0-6.59,7.84c0,.07-.2.29-.32.21a36.07,36.07,0,0,0-18.09-5.41,18.92,18.92,0,0,0-1.06,5.41L1059.68,536l20.15-23.06S1076.43,500.53,1063.08,499.56Z"/><path class="cls-34" d="M1094.68,488.87s2.38,9.3,5.72,13.83-3.34,13.82,7.86,24.3c6.67,5.72,9.53,1.43,11-2.62s3.33-.48,5.71-.24,4.53,1,6.44-3.57,6.91-1.91,10-5.72,11.68-39.08-3.57-48.37S1090.86,471,1094.68,488.87Z"/><path class="cls-31" d="M1107.22,517.12c-1-4.74-.65-9.76-3-14.19-1-2-2.62-3.95-5.08-4.08-.34,0-.67,0-1,0a22.33,22.33,0,0,0,2.2,3.86c3.33,4.52-3.34,13.82,7.86,24.3,3.34,2.87,5.73,3.22,7.46,2.35A21.59,21.59,0,0,1,1107.22,517.12Z"/><path class="cls-31" d="M1137.81,466.48c-15.25-9.3-47,4.52-43.13,22.39a65.53,65.53,0,0,0,3.65,10.25c.44-2,1-4.08,2.43-5.45,2.25-2.17,3.85,1.61,4.2,3.27.64,3,.62,6.09,1,9.1.48,3.46,1.56,7.18,4.94,8.87,4.07,2,8.71,1.67,13,3.06,2.53.83,5.53,2.55,5.71,5.41a8.14,8.14,0,0,0,1.79-2.81c1.9-4.53,6.91-1.91,10-5.72S1153.06,475.77,1137.81,466.48Z"/><path class="cls-34" d="M1059.53,583.12s5.58,11.31,12.19,10.51,5.66-4.15,7.26-6.54,2.63-1.59,4-.24,3.67,1.6,5.9-2.15,7-20.88,1.17-26.24-30.74-8.34-36.46,1.78S1059.53,583.12,1059.53,583.12Z"/><path class="cls-35" d="M1090,558.46c-5.84-5.36-30.74-8.34-36.46,1.78a12.73,12.73,0,0,0-1.52,7.42,9.89,9.89,0,0,1,6.26-4.73,7.74,7.74,0,0,1,5.13.51c1.67.9,2.61,2.43,4,3.68a5.52,5.52,0,0,0,6.85.91c1.43-.94,2.74-2.74,4.38-3.31,3.88-1.36,4.84,4.4,4.14,7.08a10.83,10.83,0,0,1-2.39,4.65c-1.3,1.42-2.86,2.61-4.05,4.14-2.31,3-1.52,7-3.81,9.95a9.89,9.89,0,0,1-3.46,2.79,6,6,0,0,0,2.66.3c6.62-.79,5.66-4.15,7.26-6.54s2.63-1.59,4-.24,3.67,1.6,5.9-2.15S1095.87,563.82,1090,558.46Z"/><path class="cls-34" d="M1007,495s-.72.48-6.92,2.19-10.21,8.26-6.93,12.39c2.31,2.55,0,5.83-5.59,8.75s-8.38,8.26-6.32,12.28,6.32,1.57,6,4.73-1.22,4.86,3.16,7.66,4,4.74,1.09,9.48-1.58,7,1.95,10.08,7.77,2.43,9.23.49,3.89-2.07,6.8.12,5,3.76,8.27,2.43,3.28-3,3.77-4.86,2.31-2.07,4.74-1.82,3.88-1.22,3.76-4.5a4.91,4.91,0,0,0-2.55-4.37s-6.86-12.63-1.85-22.28c3-6.8,2.5-6.8.71-9.3s-1.79-7.33-1.79-7.33S1017.57,492.39,1007,495Z"/><path class="cls-35" d="M1030,554.37a4.91,4.91,0,0,0-2.55-4.37s-6.86-12.63-1.85-22.28c3-6.8,2.5-6.8.71-9.3s-1.79-7.33-1.79-7.33-6.92-18.7-17.49-16.14c0,0-.66.44-6.06,1.95a56.07,56.07,0,0,1,1.54,6.91,38.33,38.33,0,0,1-.4,13.59c-1.17,5.55-3.18,11.09-3,16.84.18,5.46,3,10,4.43,15.1a13.8,13.8,0,0,1,.08,8.29,12.5,12.5,0,0,1-6.46,6.81c2.37.52,4.52-.17,5.48-1.44,1.46-2,3.89-2.07,6.8.12s5,3.76,8.27,2.43,3.28-3,3.77-4.86,2.31-2.07,4.74-1.82S1030.09,557.65,1030,554.37Z"/><path class="cls-34" d="M1082.58,489.32a110.39,110.39,0,0,0-.75,12.46c.13,5.11-1.24,6.23-2.61,8.1s-5.86,2-8.22-1.25-5.49-5.85-13.21-5.48-9.59.12-10.46-3.86a25.74,25.74,0,0,1-.5-11.83c.87-5.86-9.71-17.19-7.47-22s-4.73-5.73-.75-10.34c2.74-2.61,4.49-1.37,6.85-.37s7.35.87,7.23-1.25,1.24-5.72,5.1-5.72,6,4.35,5.86,7.59S1068.45,479.89,1082.58,489.32Z"/><path class="cls-34" d="M1077.15,511.07A18,18,0,0,0,1078,509c.45-1.43.9-3.59-.53-4.66-1.78-1.32-4.11-.74-6.13-.68a25.91,25.91,0,0,1-9.28-1.76,23.66,23.66,0,0,1-4.12-1.66c-1.12-.63-1.88-1.87-3.05-2.4-3.55-1.62-5.16,1.09-6.37,4.12,1.33,1.44,3.86,1.49,9.3,1.23,7.72-.37,10.84,2.24,13.21,5.48A6.17,6.17,0,0,0,1077.15,511.07Z"/><path class="cls-35" d="M1082.58,489.32c-14.13-9.43-19.06-30.76-18.93-34s-2-7.59-5.86-7.59-5.23,3.6-5.1,5.72c.08,1.33-1.86,1.88-3.9,1.85a8.41,8.41,0,0,0,2.19,2.33,6.59,6.59,0,0,0,3.93.94,3.5,3.5,0,0,1,2.94.91c1.63,1.85-.48,4.51-1.81,5.77-2.75,2.62-5.4,4.86-6.16,8.76-.52,2.62-1.06,5.24-3,7.23a10.18,10.18,0,0,1-1.16,1,10.28,10.28,0,0,1,1.09,5.19,25.74,25.74,0,0,0,.5,11.83,6.26,6.26,0,0,0,.89,2.29c1-2.57,2.3-4.92,5.13-4.83,1.63.06,2.49.85,3.65,1.9a13.65,13.65,0,0,0,4.88,2.43,27.76,27.76,0,0,0,11.5,1.78c1.62-.1,4.14-.14,5.07,1.54a5.35,5.35,0,0,1,0,4.12,20.38,20.38,0,0,1-1,2.45,3.24,3.24,0,0,0,1.69-1.09c1.37-1.87,2.74-3,2.61-8.1A110.39,110.39,0,0,1,1082.58,489.32Z"/><path class="cls-29" d="M1014.5,524a49.1,49.1,0,0,1-7.7-39c3.76-15.55,11.26-22.88,14.84-21.09s4.22.54,6.1-2,5.77-2.44,8.28.35,4.12,3,5.9,2.34,7.69,1,6.89,6.25.09,5.1,1.25,8.85,2,11.35-3.76,16.71c-2.32,1.79-2.59,3.66-2.68,7.15s-1.61,8.31-9.2,8.22c-5-.36-8.14.27-9.84,4s-1,7.28-4.73,9.38C1017.17,526.74,1014.5,524,1014.5,524Z"/><path class="cls-30" d="M1050.06,479.73c-1.16-3.75-2.06-3.58-1.25-8.85s-5.1-6.88-6.89-6.25-3.39.44-5.9-2.34c-2-2.25-4.94-2.73-7-1.52a12.52,12.52,0,0,1-1,7.73c-4,9.62-11.55,17.22-15.47,26.92a37.74,37.74,0,0,0-2.4,15.8,6.71,6.71,0,0,1-.63,3.75,40.73,40.73,0,0,0,5,9s2.67,2.79,5.35,1.26c3.72-2.1,3-5.63,4.73-9.38s4.83-4.38,9.84-4c7.59.09,9.11-4.74,9.2-8.22s.36-5.36,2.68-7.15C1052.11,491.08,1051.22,483.48,1050.06,479.73Z"/><g class="cls-36"><path class="cls-34" d="M1012.94,521.4a16.63,16.63,0,0,1-.59-1.88c-.14-.61-.35-1.34-.49-2.2-.08-.43-.17-.89-.24-1.37s-.13-1-.19-1.53-.09-1.09-.14-1.68-.1-1.17-.08-1.79a34.07,34.07,0,0,1,.09-3.88c.06-.67.07-1.36.17-2.05s.19-1.38.29-2.08a19.35,19.35,0,0,1,.39-2.1c.14-.7.29-1.4.44-2.1.39-1.39.81-2.76,1.24-4.11s1-2.62,1.5-3.87,1.16-2.38,1.7-3.48a17.88,17.88,0,0,1,.88-1.57l.86-1.44a26.76,26.76,0,0,1,1.57-2.47l1.33-1.83,1.16-1.58-1,1.66-1.22,1.9c-.49.71-.94,1.59-1.45,2.52l-.8,1.46a16.74,16.74,0,0,0-.82,1.58c-.5,1.12-1,2.29-1.6,3.49l-1.44,3.84c-.4,1.34-.8,2.7-1.18,4.07-.15.69-.3,1.38-.46,2.07a18.88,18.88,0,0,0-.4,2.07c-.1.69-.21,1.37-.31,2.05s-.13,1.36-.19,2c-.14,1.32-.16,2.6-.2,3.82,0,.62,0,1.21,0,1.78s0,1.13.08,1.66.09,1,.13,1.53.11.94.16,1.37c.09.86.26,1.6.36,2.21s.23,1.1.32,1.42S1012.94,521.4,1012.94,521.4Z"/><path class="cls-34" d="M1012.22,501.74a6.08,6.08,0,0,1,.17-.86,9.06,9.06,0,0,1,.3-1,11.18,11.18,0,0,1,.5-1.21c.21-.44.46-.89.73-1.37s.6-1,1-1.45.71-1,1.14-1.46.83-1,1.28-1.41.9-.91,1.38-1.32a17.25,17.25,0,0,1,1.41-1.2c.47-.37.92-.73,1.37-1l1.27-.87a12.64,12.64,0,0,1,1.1-.69l.87-.51.76-.42-.68.54c-.44.34-1.08.81-1.81,1.4l-1.19,1c-.42.34-.84.74-1.29,1.11s-.89.8-1.34,1.22-.91.86-1.34,1.31-.86.91-1.27,1.37-.78.93-1.16,1.38-.7.91-1,1.36-.58.87-.81,1.28-.44.78-.62,1.12-.31.65-.41.9C1012.31,501.44,1012.22,501.74,1012.22,501.74Z"/><path class="cls-34" d="M1016.63,488.28a4.17,4.17,0,0,1-.27-.41,8.66,8.66,0,0,1-.58-1.18c-.09-.26-.17-.54-.26-.84s-.08-.31-.13-.47,0-.33-.07-.49c-.05-.34-.11-.69-.15-1.05s0-.72,0-1.08,0-.73,0-1.08.12-.7.18-1,.12-.66.18-1,.19-.58.28-.83c.18-.51.37-.92.48-1.21s.2-.45.2-.45,0,.18-.07.49-.11.75-.21,1.27c0,.26-.11.53-.16.83s0,.62-.08.95-.06.66-.11,1,0,.69,0,1,0,.7,0,1,0,.67.08,1,0,.32,0,.48,0,.31.08.46.09.57.13.83l.16.7a3.78,3.78,0,0,0,.14.54C1016.57,488.11,1016.63,488.28,1016.63,488.28Z"/></g><path class="cls-29" d="M1059.78,533.89a37.3,37.3,0,0,1,18.66-22.66c4.25-2.13,4.73-1.89,7.36-5.4s8.67-6.53,14.21-5.37,6,5.81,4.68,11.05.23,6.2,3.57,10.85,5.13,11.91,1.91,16.32-3.1,4.29-3.34,7.62-2.14,4.29-5.6,5-4.17,1.79-6.2,5.84-5.48,5-9.88,4.64-3.82-5-7.39-2-7.75,6.43-13,3-3.1-5-2.5-7.15-2.39-1.92-4.65-1.67c-3.22.36-2.5-1.67-1.43-6.32S1058.47,540.42,1059.78,533.89Z"/><path class="cls-30" d="M1108.26,522.36c-3.34-4.65-4.89-5.61-3.57-10.85,1.18-4.72.91-8.95-3.19-10.59a6.8,6.8,0,0,1-.75,1.92,15.88,15.88,0,0,1-3.25,3.78c-1.79,1.63-3.55,3.31-5.27,5-7.27,7.21-12.67,16.37-16.82,25.69a58.88,58.88,0,0,0-2.87,7.7c-.59,2.06-.86,4.22-1.61,6.23a14.93,14.93,0,0,1-4.82,6.73,16.84,16.84,0,0,1-4.14,2.33,10.8,10.8,0,0,0,2.8,2.43c5.24,3.45,9.41,0,13-3s3,1.67,7.39,2,7.86-.59,9.88-4.64,2.75-5.13,6.2-5.84,5.36-1.67,5.6-5,.12-3.21,3.34-7.62S1111.6,527,1108.26,522.36Z"/><path class="cls-34" d="M1172.47,522.87s-.25-6.06,4.93-5.43c4,.25,4.92-1.89,5.55-5.17s3.41-7.07,9.34-5.18,20.08,8.46,26.51,4.93,9.22-3.66,11-1.65.76,4.67-.13,6.57,1.14,3.53,3.28,5.18,4.17,3.78,2,8.45-4.29,4.67-6.56,3.66-4.8-1.26-6.06,1.9.12,6.69-2.78,8.83-5.32-.51-6.56-1.39c-2.53-1.76-2.53,3.16-7.45,3.92s-16.27,1.85-22.7.78-12-2-12.87-8.76S1173.36,529.11,1172.47,522.87Z"/><path class="cls-35" d="M1232.94,522.12c-2.14-1.65-4.16-3.29-3.28-5.18.74-1.57,1.55-3.67.8-5.49a14.79,14.79,0,0,0-5,2.3,19.34,19.34,0,0,0-5.68,6.16c-1.07,2-1.68,4.08-2.55,6.13a7.68,7.68,0,0,1-2.12,3.08c-1.62,1.22-3.68,1.5-5.58,2a55.25,55.25,0,0,1-7,1.34,13.49,13.49,0,0,0-4,.75,19.51,19.51,0,0,0-2.43,1.69,15.23,15.23,0,0,1-5.68,1.95,23.92,23.92,0,0,0-6.7,2.82c-2.08,1.15-6.71,3.82-7.77.18-.22-.77-.29-1.61-.56-2.36-.35-1-.85-1.87-1.18-2.84-.47-1.43.32-3,.94-4.2a8.5,8.5,0,0,0,1.33-3.81,9,9,0,0,0-1.13-3.88,18.37,18.37,0,0,0-1.71-3.11l-.34-.44a7.57,7.57,0,0,0-.87,3.62c.89,6.24-3.38,9.85-2.49,16.64s6.43,7.69,12.87,8.76,17.78,0,22.7-.78,4.92-5.68,7.45-3.92c1.24.88,3.66,3.54,6.56,1.39s1.52-5.67,2.78-8.83,3.78-2.91,6.06-1.9,4.42,1,6.56-3.66S1235.09,523.75,1232.94,522.12Z"/><path class="cls-29" d="M1105.4,578s4.83,8.43,8,8,2.13-5,5.14-4.55,2.91,5.91,6,5.62a46.28,46.28,0,0,1,9,.1c2.62.29,6.78-.29,9.49-7.66s15-26.63,26.38-36.28c5.36-4.83,4.53-5,3.48-8.58s.41-3.24,1.7-5.18.64-5.76-2.19-9.24-5.91-1-8.75-.08-2.43.08-4.29-2.19-5.27-1-9.23,1.3-4.46,5.18-7.94,3.16a6.53,6.53,0,0,0-9.56,3.24c-1.87,4.13.91,10.07-3.25,16.13-5.9,8.58-6.26,10.37-13.58,14.66S1103,572.16,1105.4,578Z"/><path class="cls-30" d="M1174.62,529.51c1.3-1.94.64-5.76-2.19-9.24a6.3,6.3,0,0,0-.81-.82,131.44,131.44,0,0,0-14.88,8.67,96.74,96.74,0,0,0-9.43,7.21c-1.38,1.21-2.74,2.4-4.19,3.53a12.8,12.8,0,0,0-4.07,4.37c-1.11,2.26-2.3,4.65-4.68,5.84a7.11,7.11,0,0,1-5.54.39,17.82,17.82,0,0,1-3.49-1.6c-2.64,3.82-4.34,5.6-9.51,8.63-7.33,4.29-12.82,15.67-10.43,21.51a42,42,0,0,0,2.49,3.74,14.14,14.14,0,0,1,6.84-5.48c2.2-.74,5.43-1.1,7.38.46.9.72,1.72,1.88,3,1.92s2.36-.94,3.67-1c4-.2,6.4,4.88,7.41,8,.15.46.29.91.42,1.38,2.21-.64,4.66-2.52,6.46-7.43,2.72-7.36,15-26.63,26.38-36.28,5.36-4.83,4.53-5,3.48-8.58S1173.33,531.45,1174.62,529.51Z"/><path class="cls-29" d="M1179.63,460.16s5.24-2.62,10.36-2,4.66,2.86,4.29,4.65,1.67,1.79,5.84.24,6.91-1.31,8.94,1.07,1.31,4.41-.24,6.91-1.67,4.53,1.31,5.48,3.81,5,1.79,7.63-4.53.83-3.46,3.33-1,3.34-1,3.34L1179,480.53S1170.34,473.26,1179.63,460.16Z"/><path class="cls-37" d="M1210.52,485.31a9.87,9.87,0,0,1-3.49-2.47,27.45,27.45,0,0,1-4-6.57c-.85-1.77-1.9-5.41-4.35-5.57s-5.15,1.19-7.54,1.67c-1.81.37-4.84,1.2-6.46-.15-2-1.68-.84-5-.55-7.16a16.73,16.73,0,0,0-.27-6.39,23.14,23.14,0,0,0-4.21,1.49c-9.29,13.1-.6,20.37-.6,20.37l28.48,10.25s2-.83,1-3.34C1207.63,485.51,1209,486.13,1210.52,485.31Z"/><path class="cls-38" d="M1196.55,470.53l-18,8.21-.09.17c-.67,5.09.13,13.07,8.13,21.55,13.49,14.3,28.13,14.85,28.13,14.85l11.94-17.25C1202.49,493.54,1196.55,470.53,1196.55,470.53Z"/><path class="cls-39" d="M1186.6,500.46c-8-8.48-8.8-16.46-8.13-21.55-.29.5-1.26,2.19-3.31,5.56,1.08,29.48,39.88,34.41,39.88,34.41l-.31-3.57S1200.09,514.76,1186.6,500.46Z"/><path class="cls-40" d="M1226.67,498.06l-11.94,17.25.31,3.57,11-13.06S1226.41,504.53,1226.67,498.06Z"/><path class="cls-34" d="M1130,474.53s11.26,2.59,11.12,6.92.87,7.8,9.09,10.25,13.28,2.17,19.64,7.37,10.83,4.33,12.7-5.35-1.87-14.72-4.19-18.47-.72-5.92,2.32-8.95,1.58-7.65-4.77-10.83-1.88-4.48-4.76-9-7.37-4.33-10.83-3.18-4.62.15-4.33-4-3.76-6.35-7.65-5.78-5.12,4-6.5,5.2c-2.31,2-2,1.16-4.9-.43s-7.8.14-7.37,6.93-.72,7.07-2.46,9.67-4.32,6.35-1,9.38S1122,471.88,1130,474.53Z"/><path class="cls-35" d="M1176.55,495.79c-5.91-5-10.28-11.45-14.53-17.84-2.69-4-5.51-9.35-10.61-10.51-3.42-.77-6.49-1.47-8.86-4.25-3.9-4.59-3.2-11.76-1.91-17.18a55.89,55.89,0,0,1,3.43-10.07c-.94,1.06-1.58,2.19-2.26,2.78-2.31,2-2,1.16-4.9-.43s-7.8.14-7.37,6.93-.72,7.07-2.46,9.67-4.32,6.35-1,9.38-4.07,7.61,3.89,10.26c0,0,11.26,2.59,11.12,6.92s.87,7.8,9.09,10.25,13.28,2.17,19.64,7.37c4.94,4,8.75,4.41,11.07-.18A33.08,33.08,0,0,1,1176.55,495.79Z"/><g class="cls-36"><path class="cls-34" d="M1138.45,458.49s.46.6,1.31,1.61a40,40,0,0,0,3.75,3.95,11.88,11.88,0,0,0,2.92,2c1.18.57,2.44,1,3.76,1.51s2.72,1,4.09,1.58c.35.14.68.33,1,.49a8.78,8.78,0,0,1,1,.55c.34.21.66.38,1,.63l.44.35a5.62,5.62,0,0,1,.44.41,19.8,19.8,0,0,1,2.76,3.65c.79,1.28,1.5,2.56,2.17,3.81s1.29,2.47,1.93,3.58a17.44,17.44,0,0,0,1,1.55l1,1.45,1.76,2.53c.53.76,1,1.39,1.41,1.92.77,1.07,1.22,1.67,1.22,1.67l-1.33-1.59c-.42-.51-1-1.12-1.51-1.85l-1.88-2.45-1.07-1.41a17.65,17.65,0,0,1-1.11-1.55c-.69-1.11-1.34-2.31-2-3.55s-1.39-2.51-2.18-3.75a18.85,18.85,0,0,0-2.69-3.49l-.38-.37-.45-.36c-.26-.2-.61-.39-.91-.59a8.1,8.1,0,0,0-1-.53c-.33-.17-.64-.35-1-.49-1.33-.62-2.7-1.12-4-1.61a34.46,34.46,0,0,1-3.77-1.62,11.94,11.94,0,0,1-3-2.22,26.38,26.38,0,0,1-2.11-2.29c-.59-.7-1.08-1.34-1.48-1.87C1138.86,459.12,1138.45,458.49,1138.45,458.49Z"/><path class="cls-34" d="M1166.4,485.32a13.07,13.07,0,0,1-1.34-.24l-.62-.15-.71-.15c-.49-.1-1-.24-1.52-.37a27.6,27.6,0,0,1-2.78-.91c-.74-.29-1.23-.54-1.23-.54a12,12,0,0,1,1.34.15c.8.12,1.85.35,2.89.62.51.15,1,.3,1.5.46a8.78,8.78,0,0,1,1.28.5A11.77,11.77,0,0,1,1166.4,485.32Z"/><path class="cls-34" d="M1148,449.92a12,12,0,0,0,.12,1.25,22.32,22.32,0,0,0,.72,3.25c.21.65.44,1.36.74,2.08.14.37.31.74.49,1.11s.34.75.55,1.13c.37.77.84,1.51,1.31,2.28.25.37.51.74.76,1.12l.83,1.08c.55.74,1.17,1.38,1.77,2.09l1.73,2c.58.64,1,1.38,1.52,2a21.41,21.41,0,0,1,1.22,1.9,12.16,12.16,0,0,1,.84,1.71c.05.13.1.26.16.38s.07.25.1.38.13.45.18.65a3.71,3.71,0,0,1,.06.94,1.23,1.23,0,0,1,0,.33,1.19,1.19,0,0,0,0-.33,5.65,5.65,0,0,0-.16-.91c-.08-.19-.15-.39-.24-.62s-.08-.23-.13-.35l-.19-.36a15,15,0,0,0-.94-1.61,17,17,0,0,0-1.29-1.8l-.75-.94c-.26-.32-.52-.65-.81-1-.59-.64-1.18-1.3-1.79-2s-1.25-1.36-1.81-2.1c-.28-.37-.57-.73-.84-1.11s-.51-.78-.77-1.16a26.35,26.35,0,0,1-1.3-2.37,12.12,12.12,0,0,1-.52-1.18c-.16-.39-.31-.77-.44-1.16a22.08,22.08,0,0,1-.63-2.16,18.71,18.71,0,0,1-.48-3.33A9.72,9.72,0,0,1,1148,449.92Z"/><path class="cls-34" d="M1159.57,456.38s0,.23.12.64.18,1,.26,1.71.18,1.53.26,2.42.12,1.83.17,2.79,0,1.9,0,2.79-.08,1.73-.13,2.44-.17,1.3-.23,1.71-.1.65-.1.65,0-.24,0-.66,0-1-.05-1.71-.06-1.54-.08-2.42-.07-1.84-.11-2.78-.06-1.89-.09-2.78,0-1.72,0-2.43V457C1159.56,456.61,1159.57,456.38,1159.57,456.38Z"/></g><path class="cls-41" d="M1180.52,462a10.45,10.45,0,0,0-4-5.34,14.75,14.75,0,0,0-4-1.52c-2.73-.91-2.49-3.55-2.52-5.77-.09-5.74-4.69-6.77-9.27-4.74-.18.07-.92.39-.58.3,3.55-.95,7.36-1.05,8.74,3.15.66,2-.28,4.15.48,6.14.52,1.34,2.27,2.18,3.55,2.47a11.88,11.88,0,0,1,7.89,6.5C1181,463.62,1180.64,462.35,1180.52,462Z"/><g class="cls-36"><path class="cls-29" d="M1095,508.67s-.51.57-1.38,1.61-2.07,2.53-3.49,4.35c-.69.92-1.46,1.9-2.22,3l-1.18,1.65-1.19,1.76c-.84,1.17-1.6,2.45-2.42,3.72s-1.55,2.62-2.32,4-1.49,2.68-2.14,4l-1,2-.47,1-.41,1-.79,2c-.14.32-.27.64-.4,1s-.21.64-.32.95c-.2.62-.41,1.23-.61,1.82a15.71,15.71,0,0,0-.52,1.71c-.29,1.12-.55,2.14-.78,3.05s-.31,1.72-.44,2.38c-.22,1.33-.35,2.09-.35,2.09s.07-.76.21-2.11c.1-.66.13-1.49.31-2.41s.42-2,.66-3.1a17.37,17.37,0,0,1,.47-1.74l.56-1.86.3-1,.36-1c.25-.66.51-1.32.77-2l.4-1c.16-.33.31-.67.47-1l.94-2.06c.65-1.38,1.41-2.72,2.11-4.1s1.57-2.67,2.38-4,1.62-2.55,2.48-3.72c.41-.59.82-1.18,1.23-1.75l1.23-1.62c.8-1.07,1.6-2,2.33-2.93,1.47-1.79,2.78-3.21,3.7-4.19S1095,508.67,1095,508.67Z"/><path class="cls-29" d="M1084.26,522.22s-.11.38-.26,1-.36,1.62-.57,2.77c-.1.57-.19,1.2-.28,1.87s-.16,1.36-.24,2.08-.14,1.48-.15,2.24-.07,1.54-.06,2.31,0,1.56.06,2.32.1,1.51.17,2.23.16,1.42.25,2.09q.08.5.15,1c.05.31.12.6.18.89.12.57.21,1.1.32,1.56s.22.87.31,1.2c.16.66.26,1,.26,1l-.39-1-.44-1.17c-.16-.45-.3-1-.45-1.54-.09-.28-.16-.58-.25-.89s-.13-.63-.2-1a21.28,21.28,0,0,1-.37-2.1c-.08-.74-.21-1.49-.23-2.27s-.1-1.56-.08-2.36,0-1.57.08-2.35.15-1.53.22-2.27a39.64,39.64,0,0,1,.75-4,27.77,27.77,0,0,1,.82-2.73C1084.09,522.58,1084.26,522.22,1084.26,522.22Z"/><path class="cls-29" d="M1086,519.72l-.68.26c-.43.18-1,.44-1.75.79s-1.53.77-2.39,1.26c-.42.26-.86.51-1.29.8s-.86.58-1.28.89-.84.63-1.24,1-.78.67-1.15,1-.7.67-1,1-.62.63-.88.92-.52.55-.73.8-.38.48-.53.66l-.46.56s.12-.24.35-.64l.43-.73a9.2,9.2,0,0,1,.62-.9,8.1,8.1,0,0,1,.81-1,12,12,0,0,1,1-1.08,14.73,14.73,0,0,1,1.15-1.06,15.36,15.36,0,0,1,1.26-1c.43-.32.88-.62,1.33-.9s.92-.52,1.36-.77a19.68,19.68,0,0,1,2.53-1.09,15.52,15.52,0,0,1,1.87-.54C1085.76,519.75,1086,519.72,1086,519.72Z"/></g><path class="cls-29" d="M1064.15,469.27s-6.77-15.41,5.26-22c4.33-1.49,11.09.54,14.88-3.92s6.08-5,10-3.25,8.79,3,14.06.81,10.54-2.16,14.87.81,7.57,9.06,4.19,14.06-2.44,7-2.7,9.87-2.84,7.71-9.87,8.11-8.79,1.35-10.28,5.68-4.19,15.14-14.06,14.74S1069.55,479.68,1064.15,469.27Z"/><path class="cls-30" d="M1123.22,441.69a13.35,13.35,0,0,0-3.5-1.71,25.34,25.34,0,0,1-4.37,2.83c-3.88,2-8.13,3-12.15,4.67-9.64,4-19.78,14.67-23.81,24.35-2.45,5.88-1.12,8.19-3.17,14.21,4.54,4.57,9.55,7.91,14.28,8.11,9.87.4,12.57-10.42,14.06-14.74s3.25-5.27,10.28-5.68,9.59-5.27,9.87-8.11-.68-4.86,2.7-9.87S1127.55,444.67,1123.22,441.69Z"/><path class="cls-29" d="M1147.17,542.2s10.23-9.69,40.92-.21c10.33-.22,17.44,4.3,17.33,10.23s-3.12,7.53-5.17,8.93-2.79,4.2-3.55,6.35-4.06,5.86-10.23,4.42c-3.23-.75-3.76-4.63-3.76-4.63s-6.57,6.78-12.17,6-4.09-6.46-8.29-6.78-5.71,4.84-10.66,2.8-1.61-4.64-2.37-7.65-3.13-1.18-3.67-4.42,2-3.76.65-5S1144.7,544.89,1147.17,542.2Z"/><path class="cls-30" d="M1194.51,558.33c-4.51-.27-9.16-.81-13.26-2.82-4.3-2.11-8.25-5.16-12.86-6.58a42.25,42.25,0,0,0-12.11-2,36.38,36.38,0,0,0-11,1.5,6.31,6.31,0,0,0,.94,3.8c1.3,1.29-1.18,1.82-.65,5s2.91,1.41,3.67,4.42-2.59,5.6,2.37,7.65,6.46-3.13,10.66-2.8,2.69,6,8.29,6.78,12.17-6,12.17-6,.53,3.88,3.76,4.63c6.17,1.44,9.48-2.26,10.23-4.42s1.51-5,3.55-6.35a11.48,11.48,0,0,0,3.75-3.4A36.75,36.75,0,0,1,1194.51,558.33Z"/><g class="cls-36"><path class="cls-29" d="M1149,546.79s.57-.06,1.55-.09,2.4-.05,4.09,0c.84,0,1.76.09,2.73.19s2,.19,3,.35,2.12.36,3.22.54,2.19.47,3.29.76l1.62.48.82.24.78.28c1.05.38,2.1.72,3.06,1.17a27.32,27.32,0,0,1,2.77,1.31l1.25.67.59.32.54.36c.71.46,1.35.89,1.92,1.28s1,.81,1.4,1.12l1.18,1-1.27-.88c-.41-.28-.88-.64-1.45-1s-1.26-.72-2-1.15l-.56-.33-.59-.3-1.27-.61c-.84-.44-1.8-.79-2.76-1.2s-2-.75-3-1.11l-.79-.26-.8-.23-1.61-.45c-1.08-.3-2.17-.54-3.25-.79s-2.14-.45-3.18-.59-2-.33-3-.45-1.86-.22-2.7-.3c-1.68-.16-3.07-.27-4.06-.3S1149,546.79,1149,546.79Z"/><path class="cls-29" d="M1165.9,548.46a5.83,5.83,0,0,1,.62-.39,18.32,18.32,0,0,1,1.74-.84c.37-.16.78-.31,1.22-.46s.9-.3,1.38-.42,1-.25,1.52-.34,1-.17,1.58-.25,1.07-.1,1.59-.14,1,0,1.55,0,1,0,1.45.06.9.1,1.29.14.76.09,1.08.17.59.14.82.18l.72.17s-.27,0-.74,0l-.83,0c-.32,0-.69,0-1.08,0s-.83,0-1.28,0-.93,0-1.41,0c-1,0-2,.12-3.07.26-.53.07-1,.12-1.55.22s-1,.17-1.49.28c-1,.19-1.85.43-2.61.64A24.39,24.39,0,0,0,1165.9,548.46Z"/><path class="cls-29" d="M1156,546.91a11.4,11.4,0,0,1,1.57.65,15.93,15.93,0,0,1,1.53.83c.55.32,1.1.73,1.66,1.11.26.23.52.45.79.66a7.7,7.7,0,0,1,.72.67c.23.22.44.46.63.67s.39.42.54.63c.29.43.51.8.67,1a3.87,3.87,0,0,1,.23.4s-.13-.11-.34-.32-.52-.49-.87-.85c-.17-.17-.39-.34-.61-.53l-.67-.59c-.22-.21-.5-.38-.75-.6l-.77-.61-.8-.59c-.27-.19-.51-.41-.77-.58l-1.39-1Z"/></g><g class="cls-36"><path class="cls-34" d="M1078.47,473.33l.06-.08c0-.06.07-.14.11-.26s.22-.58.39-1a36.54,36.54,0,0,1,1.57-3.53c.35-.71.78-1.47,1.23-2.27s1-1.62,1.54-2.44,1.18-1.66,1.83-2.49,1.34-1.65,2.06-2.44a48.11,48.11,0,0,1,4.56-4.31c.77-.64,1.54-1.23,2.29-1.76s1.47-1,2.14-1.45,1.3-.81,1.88-1.12,1-.6,1.47-.8l1.31-.65s-.45.29-1.24.77c-.4.24-.86.56-1.4.91s-1.13.78-1.79,1.23-1.35,1-2,1.53-1.45,1.18-2.21,1.81a49.86,49.86,0,0,0-4.43,4.32c-.72.77-1.41,1.57-2.06,2.38s-1.28,1.61-1.85,2.42a50.75,50.75,0,0,0-2.93,4.55c-.78,1.38-1.39,2.56-1.8,3.4l-.47,1-.14.26Z"/><path class="cls-34" d="M1089.42,448.59s-.16.68-.41,1.71c-.13.51-.26,1.11-.43,1.74-.07.32-.13.65-.22,1s-.17.67-.22,1-.15.68-.22,1-.15.66-.19,1c-.1.64-.26,1.24-.32,1.76s-.15.95-.19,1.25-.1.49-.1.49,0-.18,0-.49-.06-.75-.08-1.28a15.23,15.23,0,0,1,.11-1.82,8.89,8.89,0,0,1,.13-1c.07-.35.13-.69.2-1,.15-.7.35-1.38.54-2s.42-1.21.64-1.7A12.27,12.27,0,0,1,1089.42,448.59Z"/></g><g class="cls-36"><path class="cls-29" d="M1135.29,550.81s.22-.48.66-1.29,1.1-2,2-3.28c.43-.67.93-1.37,1.45-2.11s1.11-1.51,1.72-2.29,1.26-1.57,2-2.34,1.39-1.58,2.14-2.33l1.12-1.12,1.15-1.07c.76-.72,1.55-1.38,2.32-2s1.53-1.21,2.27-1.75l1.06-.78,1-.67c.66-.43,1.28-.83,1.83-1.15l1.47-.79,1.28-.68-1.21.8-1.4.89-1.75,1.26-1,.71-1,.83c-.7.56-1.45,1.15-2.19,1.8s-1.51,1.3-2.25,2l-1.13,1.07-1.09,1.13c-.75.73-1.46,1.51-2.15,2.27s-1.35,1.55-2,2.29-1.24,1.49-1.79,2.21-1.08,1.39-1.53,2c-.93,1.27-1.69,2.35-2.19,3.13S1135.29,550.81,1135.29,550.81Z"/><path class="cls-29" d="M1136.5,549.14a2.54,2.54,0,0,1,.35-.36,11.78,11.78,0,0,1,1-.84c.22-.17.48-.32.74-.49a5.89,5.89,0,0,1,.86-.5c.3-.16.61-.33.94-.48s.67-.28,1-.42l1-.37c.34-.11.69-.18,1-.27l1-.22a7.24,7.24,0,0,1,.87-.12c.55-.06,1-.08,1.32-.1l.5,0s-.17.07-.48.16-.74.24-1.25.37c-.26.09-.55.13-.83.24l-.92.31-1,.31-1,.39c-.33.13-.67.23-1,.38s-.63.28-.94.41-.59.27-.87.4l-.79.37c-.46.26-.88.44-1.14.61Z"/><path class="cls-29" d="M1139.57,543.73a16.17,16.17,0,0,1,0-1.71,24.65,24.65,0,0,1,.45-3.74c.17-.67.29-1.35.5-2s.37-1.19.58-1.66.4-.86.52-1.13.22-.42.22-.42,0,.18-.09.47-.14.71-.26,1.2-.22,1.09-.36,1.7c-.08.31-.13.63-.2.95l-.21,1c-.14.66-.25,1.33-.39,1.94s-.25,1.21-.35,1.71-.21.91-.27,1.2Z"/></g><g class="cls-36"><path class="cls-34" d="M1176.91,543.51s.51-.36,1.43-.93,2.26-1.38,3.91-2.26,3.57-1.9,5.69-2.87c1.06-.49,2.18-1,3.3-1.45s2.29-.94,3.47-1.37,2.34-.85,3.52-1.2,2.31-.74,3.45-1,2.22-.59,3.27-.8,2-.45,3-.57,1.77-.27,2.52-.38,1.42-.12,2-.17l1.7-.13-1.68.27c-.54.08-1.19.16-1.94.3s-1.57.33-2.49.5-1.88.45-2.91.69-2.11.58-3.23.89-2.26.68-3.42,1.07-2.31.81-3.48,1.23-2.31.89-3.45,1.32-2.24.92-3.3,1.39-2.09.92-3,1.38-1.88.87-2.73,1.28c-1.66.83-3.05,1.52-4,2Z"/><path class="cls-34" d="M1195.45,533.36s.1-.2.3-.52.51-.77.92-1.28c.19-.27.43-.53.67-.81s.5-.59.81-.86l.91-.86c.31-.3.66-.57,1-.84l1-.78c.34-.27.73-.46,1.07-.68l1-.59a5.57,5.57,0,0,1,.95-.47c.6-.27,1.11-.46,1.45-.6l.56-.21s-.18.13-.5.33-.77.51-1.31.84a9.74,9.74,0,0,0-.87.56l-.94.67c-.33.23-.68.44-1,.71l-1,.78c-.34.26-.68.51-1,.8s-.63.54-.93.79-.58.54-.85.78-.54.48-.76.71c-.46.45-.85.81-1.1,1.09Z"/></g><path class="cls-40" d="M1138.24,492.48c-3.23-2.37-4.54-6.23-1.32-12.48l-.36-2.68S1128.7,486.4,1138.24,492.48Z"/><path class="cls-39" d="M1127.21,512.82c-21-7-21.66-19.76-21.59-22.13a23.09,23.09,0,0,0,1.27,12.18c6.44,17.34,41.64,20,55.22,8.94-.23-1.62-.49-3.3-.74-4.93C1157,509.94,1143.19,518.12,1127.21,512.82Z"/><path class="cls-38" d="M1127.21,512.82c16,5.3,29.78-2.88,34.16-5.94-.89-5.77-1.76-11-1.76-11s-14.73,1.46-21.37-3.42c-9.54-6.08-1.68-15.16-1.68-15.16s-2.86-1.71-10.92-1.32-10.14-.89-10.14-.89-8.15,5.66-9.88,15.58C1105.55,493.06,1106.19,505.86,1127.21,512.82Z"/><path class="cls-9" d="M1157,542.63c-5.48,1.51-10.83,3.4-15.3,7-.14.12-.27.67,0,.47,4.68-3.28,9.87-4.82,15.16-6.74C1157.07,543.25,1157.34,542.52,1157,542.63Z"/><path class="cls-9" d="M1162.9,541.65c-.88,0-1.74.14-2.61.17-.3,0-.61.81-.27.79.87,0,1.73-.16,2.6-.19C1162.92,542.41,1163.23,541.64,1162.9,541.65Z"/><path class="cls-9" d="M1056.08,562.58c-5.65-.62-11.32-.84-16.79.84-.17.05-.5.51-.17.43,5.56-1.32,11-.84,16.58-.66C1056,563.2,1056.47,562.62,1056.08,562.58Z"/><path class="cls-9" d="M1062,563.86c-.81-.29-1.66-.5-2.47-.8-.3-.11-.87.52-.55.63.82.29,1.67.49,2.49.78C1061.7,564.58,1062.27,564,1062,563.86Z"/><g class="cls-36"><path class="cls-34" d="M1006.44,505.38s-.27.47-.71,1.31c-.21.43-.48.94-.75,1.55s-.58,1.29-.9,2-.63,1.57-1,2.44-.64,1.81-.92,2.79c-.16.48-.31,1-.46,1.48s-.27,1-.4,1.53c-.3,1-.49,2.1-.71,3.16s-.38,2.13-.58,3.18-.25,2.11-.37,3.11-.14,2-.22,2.93-.06,1.81-.08,2.63-.06,1.57,0,2.23,0,1.24.06,1.71c0,1,0,1.51,0,1.51s-.06-.54-.17-1.49c-.06-.48-.12-1.06-.2-1.72s-.09-1.42-.12-2.24-.09-1.71,0-2.65,0-1.94.12-3,.18-2.08.33-3.15.3-2.16.54-3.23.45-2.15.76-3.19c.15-.52.29-1,.43-1.54s.33-1,.49-1.5c.29-1,.69-1.89,1-2.78s.71-1.68,1.08-2.42c.17-.37.35-.72.51-1.06l.51-.93c.32-.59.63-1.08.87-1.5C1006.12,505.81,1006.44,505.38,1006.44,505.38Z"/><path class="cls-34" d="M1002.87,512.77s0,.28.06.78.11,1.21.19,2.06.2,1.84.34,2.89c.07.53.17,1.07.24,1.62s.19,1.11.3,1.66.2,1.12.34,1.66.23,1.08.39,1.59.25,1,.4,1.47.26.91.42,1.31.28.76.39,1.09.25.6.35.83c.19.46.29.73.29.73l-.42-.67a17.6,17.6,0,0,1-1-1.84c-.2-.38-.35-.82-.54-1.28a14.91,14.91,0,0,1-.52-1.47c-.17-.51-.31-1.05-.45-1.61s-.25-1.11-.37-1.67c-.21-1.14-.37-2.28-.46-3.35s-.11-2.08-.12-2.94,0-1.58.07-2.08S1002.87,512.77,1002.87,512.77Z"/><path class="cls-34" d="M999.87,523.19l-.3.45c-.2.28-.45.7-.77,1.19s-.66,1.08-1.06,1.68l-.55,1c-.18.34-.4.66-.56,1s-.34.69-.52,1c-.09.17-.17.34-.26.5l-.22.51c-.26.67-.59,1.27-.77,1.82s-.36,1-.48,1.32-.2.51-.2.51,0-.19.07-.53.11-.84.21-1.42a5.17,5.17,0,0,1,.25-.93c.11-.32.22-.66.34-1a7.31,7.31,0,0,1,.44-1l.51-1.07c.17-.36.4-.68.6-1s.41-.65.62-1c.45-.59.85-1.16,1.25-1.59s.75-.79,1-1A5,5,0,0,1,999.87,523.19Z"/></g><path class="cls-41" d="M996.68,500.38c-1.63,1.21-3.37,2.07-3.83,4.33-1,4.8,5.54,7.08-1.17,11.66-3.69,2.52-12.25,9.46-7.15,14.28.74.7.2,0-.28-.65-4.47-6.23,8.78-10.76,11.27-15.2a6.16,6.16,0,0,0,.84-5,10.62,10.62,0,0,0-1.23-2.75c-1.26-2.26.31-4.08,1.76-5.82C997.08,501,997.23,500,996.68,500.38Z"/><g class="cls-36"><path class="cls-42" d="M1154.32,471.76l-2.48,4.15-.12,2.33,16.34,6.48,5.09-5.49-.82-4.37S1159.86,471,1154.32,471.76Z"/><path class="cls-42" d="M1098.68,527.91a74.7,74.7,0,0,0-18.66,1.35l-1.86,5.83.45,4.43,21.16.12-.26-5Z"/><path class="cls-42" d="M1042.55,482l-9.41-1.13c-5,11.56-4.8,20.53-4.8,20.53l1.52,5,5.42.45,8.4-21.1-1.08-3.57Z"/><path class="cls-42" d="M1087.71,464.11,1088,470l2.28,1.3a41,41,0,0,1,23.32-3.19l.81-2,2.25-5.63A31.34,31.34,0,0,0,1087.71,464.11Z"/><path class="cls-42" d="M1206.85,519.1l-4.7-4.19s-21.45.06-23.35,18.53l0,.23.59,3.05,7.43,2.56s2.53-12.22,20.35-16.64Z"/><path class="cls-42" d="M1191.88,512.16l.78,1,7.55-.13s.23-.43.59-1.22a38.68,38.68,0,0,0,3-20.68c-5.49-.14-9.06.06-9.06.06l-.13.16-1.13,1.43s1.46,12-1.91,19Z"/></g><path class="cls-43" d="M1172.33,472.72s-12.47-3.88-18-3.11l-2.48,4.16,16.38,4.59Z"/><polygon class="cls-44" points="1151.84 473.76 1151.72 476.09 1168.06 482.57 1168.22 478.36 1151.84 473.76"/><polygon class="cls-45" points="1172.33 472.72 1168.22 478.36 1168.06 482.57 1173.15 477.09 1172.33 472.72"/><path class="cls-43" d="M1098.68,525.76a75.3,75.3,0,0,0-18.66,1.35l-1.86,5.84,21.35-.45Z"/><polygon class="cls-45" points="1078.16 532.95 1078.61 537.37 1099.77 537.5 1099.51 532.5 1078.16 532.95"/><path class="cls-43" d="M1042.6,480l0-.17-9.41-1.14c-5,11.56-4.8,20.53-4.8,20.53l6,1.16S1038.63,485.63,1042.6,480Z"/><polygon class="cls-44" points="1028.34 499.21 1029.86 504.21 1035.28 504.66 1034.33 500.37 1028.34 499.21"/><path class="cls-45" d="M1042.6,480c-4,5.64-8.27,20.38-8.27,20.38l1,4.29,8.4-21.09Z"/><path class="cls-43" d="M1087.71,462l3,4.3s10.75-7.43,23.67-2.26l2.25-5.62A31.31,31.31,0,0,0,1087.71,462Z"/><polygon class="cls-44" points="1087.7 461.96 1087.96 467.89 1090.24 469.2 1090.7 466.26 1087.7 461.96"/><path class="cls-45" d="M1090.7,466.27l-.46,2.93a41,41,0,0,1,23.32-3.2l.81-2C1101.45,458.84,1090.7,466.27,1090.7,466.27Z"/><path class="cls-43" d="M1206.85,517l-4.7-4.19s-21.45.06-23.35,18.53l0,.24a25.13,25.13,0,0,1,6.93,2.8C1185.71,528.67,1193.44,519.83,1206.85,517Z"/><path class="cls-44" d="M1178.84,531.53l.59,3,7.43,2.57-1.09-2.81A25.13,25.13,0,0,0,1178.84,531.53Z"/><path class="cls-45" d="M1207.21,520.49l-.36-3.54c-13.41,2.88-21.14,11.72-21.08,17.38l1.09,2.81S1189.39,524.92,1207.21,520.49Z"/><path class="cls-44" d="M1196,499.65a33.33,33.33,0,0,0-1.32-10.43l-1.13,1.43s1.46,12.05-1.91,19C1194.58,510.24,1195.57,505,1196,499.65Z"/><path class="cls-45" d="M1192.66,511l7.55-.13s.23-.43.59-1.21l-8.92.32Z"/><path class="cls-43" d="M1203.84,489c-5.49-.13-9.06.07-9.06.07l-.13.15a33.33,33.33,0,0,1,1.32,10.43c-.4,5.37-1.39,10.59-4.36,10l.27.36,8.92-.32A38.72,38.72,0,0,0,1203.84,489Z"/><path class="cls-46" d="M1025.93,572.7s3.31,16.68,23.59,16.86,23.14-12.42,23.41-17.25Z"/><path class="cls-47" d="M1072.93,571.82c0,5.95-10.52,10.78-23.5,10.78s-23.5-4.83-23.5-10.78,10.52-10.77,23.5-10.77S1072.93,565.87,1072.93,571.82Z"/><ellipse class="cls-48" cx="1049.43" cy="570.92" rx="20.38" ry="8.45"/><path class="cls-49" d="M1057.83,570.17s7.68.8,7.51-1.44-8.67-5.36-21.19-3.66-18.13,7.24-8,9.21,24,3.48,27.35.44S1062.66,571.24,1057.83,570.17Z"/><path class="cls-50" d="M1054.06,571.88s2.34.9,2.11,1.89S1052,571.23,1054.06,571.88Z"/><path class="cls-50" d="M1054.31,568.5s2.41-1.69,3.24-1S1052.33,570.06,1054.31,568.5Z"/><path class="cls-50" d="M1050.39,567.66s1.47-1.9,2.32-1.38S1049.26,569.36,1050.39,567.66Z"/><path class="cls-50" d="M1046.6,567.54s.58-1.52,1.22-1.35S1046.2,568.86,1046.6,567.54Z"/><path class="cls-50" d="M1042.73,567.83s.34-.9.72-.8S1042.49,568.61,1042.73,567.83Z"/><path class="cls-50" d="M1049.09,571.55s1.09,1.15.66,1.65S1048.09,570.62,1049.09,571.55Z"/><path class="cls-50" d="M1043.72,571.68s.6.63.36.91S1043.18,571.18,1043.72,571.68Z"/><path class="cls-47" d="M1080.28,474.91c6.77,9.11,6.84,20.52.15,25.49s-17.6,1.63-24.37-7.47-6.84-20.52-.15-25.49S1073.5,465.81,1080.28,474.91Z"/><path class="cls-48" d="M1078.71,476c6.25,8.38,6.57,18.72.72,23.07s-15.65,1.07-21.9-7.32-6.56-18.72-.71-23.07S1072.47,467.59,1078.71,476Z"/><path class="cls-49" d="M1064.74,477.31s-3.16-7.36-2.11-8.13,10,2.19,14.88,10.48,3.71,14.72,2.59,16-5.81-4.08-5.81-4.08,3,6.06,1.73,6.8-12.62,1.61-19.3-12C1053,478.42,1054.94,462.22,1064.74,477.31Z"/><path class="cls-50" d="M1070.58,492.31s0,1.84-.76,1.93S1070.5,490.75,1070.58,492.31Z"/><path class="cls-50" d="M1076.55,487.05s1.43,0,1.5.6S1075.34,487.1,1076.55,487.05Z"/><path class="cls-50" d="M1073.46,483.8s1.54-.48,1.82.1S1072.17,484.29,1073.46,483.8Z"/><path class="cls-50" d="M1071.28,479.62s1.54-.48,1.82.11S1070,480.12,1071.28,479.62Z"/><path class="cls-50" d="M1068.66,475.56s0-1.61.67-1.69S1068.73,477,1068.66,475.56Z"/><path class="cls-50" d="M1064.78,486.62s-1.7.54-2-.1S1066.2,486.06,1064.78,486.62Z"/><path class="cls-50" d="M1062.69,483.06s-2.29.34-2.56-.55S1064.63,482.65,1062.69,483.06Z"/><path class="cls-50" d="M1061.69,479.4s-3.11-.37-3.39-1.36S1064.34,479.59,1061.69,479.4Z"/><path class="cls-50" d="M1067.93,489.92s-1,1.56-1.64,1.26S1068.66,488.54,1067.93,489.92Z"/><path class="cls-38" d="M1130.07,571c4.47-9.12,7.27-15.23,8.57-18.11-4.31-2.23-15.42-6.26-32.76-.72-22.76,7.27-24,28-24,28l16.8,5.25S1105.64,564.89,1130.07,571Z"/><polygon class="cls-51" points="1081.93 580.14 1083.6 584.91 1100.28 588.13 1098.73 585.39 1081.93 580.14"/><path class="cls-40" d="M1098.73,585.39l1.55,2.74s8.93-18.59,30.56-14.48l-.77-2.68C1105.64,564.89,1098.73,585.39,1098.73,585.39Z"/><path class="cls-51" d="M1138.64,552.86c-1.3,2.88-4.1,9-8.57,18.11l.77,2.68c6.7-12.15,9.11-17.46,9.11-17.46A34.36,34.36,0,0,1,1138.64,552.86Z"/><g class="cls-52"><path class="cls-38" d="M1119.69,550.91c-1.66.5-3.94,0-5.69.13a33.56,33.56,0,0,0-6,1.26,35.74,35.74,0,0,0-10.41,5.32,46,46,0,0,0-7.78,7.36c-2.25,2.57-4.85,6.19-5.84,9.47-.35,1.18.67,1.27,1.18.33a45.78,45.78,0,0,1,14.26-16.12,36.28,36.28,0,0,1,10.37-4.66,34.62,34.62,0,0,1,7.08-1.14,5.92,5.92,0,0,0,2.69-.53C1119.92,552.13,1120.47,550.68,1119.69,550.91Z"/><path class="cls-38" d="M1126.12,550.88a15.44,15.44,0,0,0-3,0c-.56,0-1.25,1.47-.57,1.49a16.68,16.68,0,0,0,3.16,0C1126.15,552.35,1126.82,551,1126.12,550.88Z"/></g><path class="cls-38" d="M1056.55,546.3c3.29-5.89,5.17-9.22,6.21-11-2.7-4.49-11.06-14.83-30.19-13.25-5.77.48-20,4.94-24.67,14l9.09,14.78S1030.81,538.56,1056.55,546.3Z"/><path class="cls-51" d="M1007.9,536.05l-.19.36c-1,6.16-1,6.69-1,6.69l8.82,13.25,1.41-5.52Z"/><path class="cls-51" d="M1063.81,537.27a15.48,15.48,0,0,0-1-2c-1,1.82-2.92,5.15-6.21,11l1.52,3.69,0,.11.21,0C1062.71,542,1063.81,537.27,1063.81,537.27Z"/><path class="cls-40" d="M1056.55,546.3c-25.74-7.74-39.56,4.53-39.56,4.53l-1.41,5.52s15.8-10.2,42.51-6.25l0-.11Z"/><path class="cls-46" d="M1144.37,482.25s.94,14.86,14,16.51,29.61-6.25,32.68-26.07C1184.6,481.18,1144.37,482.25,1144.37,482.25Z"/><path class="cls-47" d="M1190.85,464.17c3.42,7.34-3.12,19.35-15.71,25.21s-26.59,3.35-30-4,4.77-17.25,17.37-23.1S1187.44,456.84,1190.85,464.17Z"/><path class="cls-48" d="M1189,464.76c3.42,5.75-3.29,15.72-14.86,21.1s-24.11,3.76-26.93-2.3,4.88-14.79,16.49-20.09C1173.18,459.14,1185.22,458.45,1189,464.76Z"/><path class="cls-49" d="M1171.19,469.94l15.29-4.75s6.68,3.4-4.5,13.23-25.73,11.88-31.18,6.61c-3.22-4.11,1.7-16.08,18.58-22.07,4-1.17,9-1.35,10.1,0S1171.19,469.94,1171.19,469.94Z"/><path class="cls-50" d="M1161.36,478s-6.35,5.82-8,4.75C1152,481.79,1158.71,479,1161.36,478Z"/><path class="cls-50" d="M1169.58,468.91a8.21,8.21,0,0,1,2.09-5C1172.48,463.12,1171.83,467.46,1169.58,468.91Z"/><path class="cls-50" d="M1165.31,470.44a6,6,0,0,1,.32-3.62C1166.44,465.05,1166.44,468,1165.31,470.44Z"/><path class="cls-50" d="M1161.69,469.72s.72,1.93,0,2.33S1161,468.11,1161.69,469.72Z"/><path class="cls-50" d="M1157.19,472.71s1.29,1.26.87,1.85S1156,471.71,1157.19,472.71Z"/><path class="cls-50" d="M1154.73,475.76s1.25.68,1,1.22S1153.64,475.24,1154.73,475.76Z"/><path class="cls-50" d="M1163.85,484.91s-.71-1.23-.26-1.58S1164.52,485.92,1163.85,484.91Z"/><path class="cls-50" d="M1167.15,483.63s-1.45-1.35-1-2S1168.47,484.71,1167.15,483.63Z"/><path class="cls-50" d="M1171.81,481.15s-1.67-1.08-1.34-1.8S1173.3,482,1171.81,481.15Z"/><path class="cls-50" d="M1176.65,477.45s-2.48-.39-2.47-1.4S1178.79,477.64,1176.65,477.45Z"/><path class="cls-50" d="M1181.49,472.66s-2.88.74-3.33-.36S1183.89,471.88,1181.49,472.66Z"/><path class="cls-53" d="M1150.32,522.21c-2.09,1.06-3.11,2.64-5.51,2.66-1.24,0-3.33-1.62-4.44-1.65a6.19,6.19,0,0,0-4.89,1.81c-4.24,3.78-1,11.76-3.51,16.41-.29.54.15.77.48.27a12.87,12.87,0,0,0,1.87-4.59c.85-3.84-.69-9.76,4.28-11.76,1.54-.62,4.32.93,6,.92,2.06,0,3.48-1.8,5.06-3C1150.16,523,1151.38,521.67,1150.32,522.21Z"/><path class="cls-53" d="M1096.13,502.11c-3-.34-4.86.49-7,2.51-1.25,1.16-2.28,2.55-3.53,3.72-2,1.88-4.65,2.61-7.08,3.75-6.64,3.09-9.81,7.61-12.55,14.31-.44,1.07-.73,2.26-.3,1.38a54.51,54.51,0,0,1,5.82-9.06c2.51-3.09,6-4.46,9.6-5.93a17.93,17.93,0,0,0,5.65-3.69c3-2.83,4.46-5.29,9-5.84C1096.08,503.21,1096.7,502.17,1096.13,502.11Z"/><path class="cls-54" d="M1177.41,521.14c3.1-12.23,1.77-30.4-14.19-29.62-13.41.42-24.87,6.24-37.23,9.64,1.23-11.47,32.8-15.58,41.92-14.35,19.49,2.75,14.53,20.44,13.09,34.6Z"/><path class="cls-55" d="M1133.63,505.73c25.07-8.94,53.55,8.58,78.14-5.81-2.78-6.36-14.51.7-19.83,1.74-7.39,2.15-14.58,1.61-22.45.65-12.3-2.2-25-6.06-36.55.66Z"/><path class="cls-56" d="M1156.67,537.6c0-2.73,5.67-6.76,7.67-8.84,3.52-3.32,7.7-5.32,11.51-8.38,6.11-4.9,15.14-10.6,18.92-17.19-2.92-2.2-8.56,4.84-11.44,6.18-3.86,2.52-8,4.53-11.91,7a52.68,52.68,0,0,0-18.31,21Z"/><path class="cls-57" d="M1150.35,518.35c25.07-8.93,53.56,8.58,78.13-5.81-2.76-6.36-14.5.7-19.82,1.75-7.39,2.14-14.58,1.6-22.45.64-12.3-2.2-25-6-36.55.66Z"/><path class="cls-57" d="M1120.62,540.94c4.19-21.91,23.45-30.57,44.39-30.24,10.85-.08,21.7,4.54,32.48,5.35-13.41-9-26.48-13-42.78-10.11-17.33,2.3-25.41,13.43-33.41,28.36Z"/><path class="cls-58" d="M1053.18,524.27c10.11,6.4,23,11.05,34.7,11.59,7.71.36,15,1,22.49-1.8,8.3-3.16,14.08-8,17.73-16.19,2.16-4.82,4-13.69,4.54-17.7C1112.08,520.63,1077.59,531.53,1053.18,524.27Z"/><path class="cls-9" d="M1132.8,496.26a44.79,44.79,0,0,0-5-18.5c-5.28-9.86-18.24-16.15-28.86-15.32-11.65.91-22.11,2.2-32.65,6.41-12.28,4.91-24.89,9.83-29,23.89-2.26,7.69,1.16,19.1,7,24.73a61.72,61.72,0,0,0,8.93,6.8c24.41,7.26,58.9-3.64,79.46-24.1A22.06,22.06,0,0,0,1132.8,496.26Z"/><path class="cls-59" d="M1101.39,520.88a27.23,27.23,0,0,1-6.66.61c-12.6-.39-24.42-12.66-26-24.85-2.54-22.2,20.9-33.33,39.63-26.65,12.67,4.56,16.34,16.26,13.94,29.1A27.1,27.1,0,0,1,1101.39,520.88Z"/><path class="cls-60" d="M1072.56,488.78a15,15,0,0,0-.49,9.79c2.62,8.34,12,14.53,20.18,16.27,13.66,2.47,26.65-7.07,27-21.43a10.48,10.48,0,0,0-4.83,2.59c.72-2.11,2.52-7.67-.85-6.31-2.51.88-4,6.19-6.34,7.9-4.37,3.72-15.34,5-17.2-2.21,2-.92,4.16-1,5.64-2.53-.52-.31-1.24-1.45-1.76-1.77,10.86-3.64-3.19-10.77-8.13-11.36C1079.61,479,1074.66,483.32,1072.56,488.78Z"/><path class="cls-61" d="M1188.09,572.2c7.67,4.75,16.14,1.28,23.35-3.45,9.72-6,20.52-10.81,30.25-16.8,6.09-3.64,28.8-17.47,13.4-24.81a8.22,8.22,0,0,0-1.55-.62c-13.48,6.13-27,18-36.77,25.37C1207.48,558.74,1198.86,568.05,1188.09,572.2Z"/><path class="cls-62" d="M1223.43,540.61c-12.71,9.58-23.14,22.35-38.14,28.73l.14.87a18,18,0,0,0,2.66,2c10.77-4.15,19.39-13.46,28.68-20.31,9.82-7.34,23.29-19.24,36.77-25.37C1243.87,523.41,1230.25,535.74,1223.43,540.61Z"/><path class="cls-61" d="M1173.77,557.33c7.62-.82,17.16-2.71,23.49-7.22,5.3-3.44,11.09-10.82,14.78-18.51a5.33,5.33,0,0,0-2.83-2.56l-1.19-1c-10.2,7.12-23.66,8.52-35.38,10.14-6.75.92-27.18-2.1-30.18,4.17a9,9,0,0,0-.51,8C1151.28,557.17,1160.9,558.25,1173.77,557.33Z"/><path class="cls-62" d="M1197.26,550.11c-6.33,4.51-15.87,6.4-23.49,7.22-12.87.92-22.49-.16-31.82-7,3.22,7.56,16.73,11.79,22.87,11.21,10.25-.48,26.32-1.55,34.56-7.15,4.12-2.53,15.87-16.21,12.66-22.76C1208.35,539.29,1202.56,546.67,1197.26,550.11Z"/><path class="cls-63" d="M1156.58,568.37c5,3.15,10.42,4.26,10.14,9.45-.31,5.87-5.57,9.92-13.21,8.91s-13.43-7.24-15.88-13.37,1.77-12.39,9-11.15C1151.23,563,1151.52,565.16,1156.58,568.37Z"/><path class="cls-64" d="M1156.59,568.37c-5.06-3.21-5.35-5.38-9.92-6.16-7.27-1.24-11.48,5-9,11.15s8.25,12.37,15.88,13.37,12.89-3,13.21-8.91C1167,572.63,1161.55,571.52,1156.59,568.37Zm-2.79,15.74c-10.42-1.17-16.5-9.21-15.94-15.36s8.28-7.67,12-4.71c2.46,2,.89,5.08,4.74,7.11s3.89-.37,7.75,1.87C1166.45,575.42,1164.22,585.29,1153.8,584.11Z"/><path class="cls-65" d="M1153.47,567.07a11,11,0,0,0,4.73,3c1.75.5-1.2,1.54-3.18.59C1151.83,569.1,1152.33,565.91,1153.47,567.07Z"/><path class="cls-66" d="M1146.05,564.28c-5.06.78-5.35,6.85-3.24,11.31s-3.52,1.44-4.31-4.8,4.51-7.91,7.32-7.73C1148,563.2,1147.16,564.11,1146.05,564.28Z"/><path class="cls-63" d="M1173.66,564c2.07,5.5,5.76,9.67,2.42,13.64-3.79,4.51-10.43,4.57-15.92-.83s-6.36-13.87-4.63-20.24,8.86-8.83,13.92-3.46C1172.63,556.51,1171.56,558.42,1173.66,564Z"/><path class="cls-64" d="M1173.67,564c-2.11-5.61-1-7.52-4.22-10.89-5-5.36-12.18-2.91-13.92,3.47s-.86,14.84,4.64,20.24,12.12,5.33,15.91.83C1179.42,573.71,1175.73,569.53,1173.67,564ZM1162,574.92c-7.61-7.21-7.62-17.28-3.48-21.86s11.24-1.14,12.41,3.45c.78,3-2.35,4.6-.5,8.54s3.33,2,5.06,6.15C1177.3,575.6,1169.58,582.14,1162,574.92Z"/><path class="cls-65" d="M1172,561.12a10.92,10.92,0,0,0,2,5.21c1.1,1.46-1.88.51-2.89-1.44C1169.43,561.75,1171.74,559.5,1172,561.12Z"/><path class="cls-66" d="M1167.71,554.42c-4.51-2.42-8.39,2.25-9.38,7.08s-3.69-1-.56-6.43,8.36-3.6,10.5-1.76C1169.92,554.73,1168.71,555,1167.71,554.42Z"/><path class="cls-63" d="M1188.24,564.27c5.82-.77,10.72-3.43,13.84.73,3.53,4.71,2.09,11.18-4.4,15.32s-15,3.06-20.77-.06-6.6-10.63-.23-14.34C1180.68,563.58,1182.3,565.05,1188.24,564.27Z"/><path class="cls-64" d="M1188.24,564.26c-5.93.79-7.55-.68-11.56,1.65-6.36,3.71-5.58,11.22.24,14.34s14.26,4.19,20.76.06,7.93-10.61,4.4-15.32C1199,560.84,1194.07,563.49,1188.24,564.26Zm8,13.86c-8.74,5.79-18.56,3.53-22.08-1.54s1.42-11.2,6.16-11.31c3.14-.07,4,3.33,8.2,2.42s2.74-2.79,7.14-3.54C1200.33,563.33,1205,572.34,1196.21,578.12Z"/><path class="cls-65" d="M1185,565.27a11,11,0,0,0,5.53-.76c1.67-.74.07,1.94-2.06,2.49C1185.07,567.88,1183.4,565.12,1185,565.27Z"/><path class="cls-66" d="M1177.54,567.9c-3.38,3.84.29,8.68,4.78,10.74s-1.78,3.37-6.39-.91-1.62-9,.65-10.63C1178.34,565.82,1178.28,567.05,1177.54,567.9Z"/><ellipse class="cls-67" cx="1326.79" cy="489.66" rx="45.46" ry="26.78"/><path class="cls-68" d="M1372.26,489.66V645c0,14.79-20.36,26.78-45.46,26.78s-45.47-12-45.47-26.78V489.66c0-14.79,20.36-26.78,45.46-26.78s45.46,12,45.46,26.78Z"/><path class="cls-69" d="M1368.15,529V639.14c0,13.45-18.52,24.36-41.36,24.36s-41.36-10.91-41.36-24.36V529Z"/><ellipse class="cls-70" cx="1326.79" cy="528.98" rx="41.52" ry="24.46"/><path class="cls-67" d="M1372.26,489.66V645c0,14.79-20.36,26.78-45.46,26.78a74.63,74.63,0,0,1-14.47-1.39,60.33,60.33,0,0,1-6.13-1.52c-1.16-.34-2.3-.72-3.4-1.13a45.64,45.64,0,0,1-12.26-6.57c-5.78-4.5-9.21-10.1-9.21-16.17V489.66c0,6.07,3.43,11.67,9.21,16.16a45.38,45.38,0,0,0,12.26,6.58c1.1.41,2.24.79,3.4,1.13a60.33,60.33,0,0,0,6.13,1.52,74.53,74.53,0,0,0,14.46,1.39c25.11,0,45.46-12,45.46-26.78Z"/><path class="cls-67" d="M1302.8,512.4V667.69a45.64,45.64,0,0,1-12.26-6.57V505.82A45.38,45.38,0,0,0,1302.8,512.4Z"/><path class="cls-67" d="M1312.33,515.05V670.34a60.33,60.33,0,0,1-6.13-1.52V513.53A60.33,60.33,0,0,0,1312.33,515.05Z"/><path class="cls-14" d="M1251.18,704.48c56,1,55.73-55.12,55.73-55.12l-111.47.78S1195.14,703.47,1251.18,704.48Z"/><path class="cls-15" d="M1281,654.78c-.15,16.51-6.71,33.25-20.69,42.77a40.93,40.93,0,0,1-17.45,6.35,80.1,80.1,0,0,0,8.34.58c56,1,55.73-55.12,55.73-55.12l-26.91.18A14.29,14.29,0,0,1,1281,654.78Z"/><path class="cls-71" d="M1225.92,686.5c-13.67-6.57-25.82-19.46-23.07-14.42,0,0,10.25,23.16,31.86,27.49S1239.59,693.07,1225.92,686.5Z"/><path class="cls-71" d="M1290.59,627.39c-21.77-12.57-57.06-12.57-78.82,0s-21.77,32.94,0,45.51,57,12.56,78.82,0S1312.35,640,1290.59,627.39Z"/><path class="cls-72" d="M1288.88,628.37c-20.82-12-54.58-12-75.41,0s-20.82,31.52,0,43.54,54.59,12,75.41,0S1309.7,640.4,1288.88,628.37Z"/><path class="cls-14" d="M1219.46,629.39l27.87,15.69a1.23,1.23,0,0,0,1.83-1.06V621.89C1230.51,620.88,1219.46,629.39,1219.46,629.39Z"/><path class="cls-14" d="M1216.12,630.91s-11.25,5-13.07,17.53l37.21-.45a1.22,1.22,0,0,0,.61-2.28Z"/><path class="cls-14" d="M1240.18,651h-37.13s-2,8.61,12.56,17.43l25.2-15.16A1.22,1.22,0,0,0,1240.18,651Z"/><path class="cls-14" d="M1247.33,653.73l-28.68,16.2c11.65,8.51,30.51,6.78,30.51,6.78V654.8A1.23,1.23,0,0,0,1247.33,653.73Z"/><path class="cls-14" d="M1252.7,654.8v21.61a56.51,56.51,0,0,0,30-6.69l-28.17-16A1.22,1.22,0,0,0,1252.7,654.8Z"/><path class="cls-14" d="M1261.14,653.25l24.6,15.16a22.94,22.94,0,0,0,14-17.43h-37.93A1.23,1.23,0,0,0,1261.14,653.25Z"/><path class="cls-14" d="M1286.24,630.91l-25,14.52a1.23,1.23,0,0,0,.59,2.29l37.37.72A24.7,24.7,0,0,0,1286.24,630.91Z"/><path class="cls-14" d="M1252.7,644.06a1.23,1.23,0,0,0,1.81,1.08l28.19-15.24c-12-8.25-30-8.09-30-8.09Z"/><path class="cls-73" d="M1195.44,650.16c0,.21,0,.42,0,.63C1195.44,650.44,1195.44,650.22,1195.44,650.16Z"/><path class="cls-74" d="M1306.91,649.82v-.46h0C1306.9,649.51,1306.91,649.67,1306.91,649.82Z"/><path class="cls-74" d="M1306.91,649.82v-.46h0C1306.9,649.51,1306.91,649.67,1306.91,649.82Z"/><path class="cls-75" d="M1306.91,649.82a17.79,17.79,0,0,1-.15,2.72C1306.86,651.27,1306.9,650.34,1306.91,649.82Z"/><polygon class="cls-11" points="813.46 346.68 470.44 544.71 224.53 404.16 567.55 206.13 813.46 346.68"/><polygon class="cls-16" points="813.46 346.68 808.51 349.53 808.51 200 813.46 197.14 813.46 346.68"/><polygon class="cls-76" points="808.51 200 562.6 59.44 567.55 56.59 813.46 197.14 808.51 200"/><polygon class="cls-16" points="808.51 349.53 562.6 208.97 562.6 59.44 808.51 200 808.51 349.53"/><polygon class="cls-16" points="808.51 305.27 475.39 497.59 475.39 463.64 808.51 271.34 808.51 305.27"/><polygon class="cls-16" points="808.51 271.34 475.39 463.64 470.43 460.77 803.54 268.46 808.51 271.34"/><polygon class="cls-77" points="567.53 167.55 234.44 359.87 234.44 325.93 567.53 133.63 567.53 167.55"/><polygon class="cls-78" points="567.53 133.63 234.44 325.93 229.46 323.08 562.57 130.75 567.53 133.63"/><polygon class="cls-79" points="803.54 268.46 470.43 460.77 234.44 325.93 234.44 316.77 803.54 259.26 803.54 268.46"/><polygon class="cls-80" points="803.54 259.26 470.43 451.58 234.44 316.77 567.53 124.44 803.54 259.26"/><path class="cls-9" d="M593.07,189.9c0-2.5,9.36-6,9.36-6,3.86-11.32,13.78-28,39-35.35,0,0,.61-6.6,2.92-7.18s11.86,2.82,11.86,2.82C705,148.77,717.42,188,717.42,188s10.65,6.51,9.93,9-11.38,5.06-12.92,4.78c-7.66,25.73-34.9,29.55-34.9,29.55s-3.83,11.1-6.11,10.72-9.2-11.1-9.2-11.1-37.07-4.22-59.49-35.33C604.73,195.62,593,193.71,593.07,189.9Z"/><path class="cls-81" d="M549.55,201c-7-.55-36.09,14.4-45.71,15.57-3.48.43-19.72-.23-19.72-.23s-8.61,4.14-9.55,5.63-2.49,7,0,9.18c6.93,6.14,14.54.42,14.54.42s8.63-.08,13.74-2.54c1.95-.93,2.6-2.43,4.5-3.27,6.25-2.74,34.55.47,46.59-6.5,1.48-1.23,3.21-11.42,3.21-11.42A7.84,7.84,0,0,0,549.55,201Z"/><path class="cls-81" d="M598.25,181.85c-5.2-.92-32,13.71-48.7,19.11-4.32,3.35,1.3,18.21,4.36,18.26,6.73-2,12.52-.63,28.32-6.71,3-1.75,23.09-19.54,23.09-19.54S603.45,182.77,598.25,181.85Z"/><path class="cls-81" d="M497.19,226.51c-62.83,11.33-79,21.06-82.09,23.78s-1.75,46.24-14.65,60.23c-3.79,4.11-32.23,1.72-34.81,6.23s6.27,13.88,13.09,14.85,14.95-.14,18.34.06,9.06,2.68,17.14,1.5,7.21-8.64,7.77-15.12c2.15-24.76,17.23-27.49,13.22-53.41,1.29.05,40.2,1.61,65.68,2.85l10.42-7.78-.89-27.1S500.31,227.44,497.19,226.51Z"/><path class="cls-82" d="M535.06,221.05c-7.78,3.75-20.88,2.46-37.87,5.46,11.15,16.7,3.69,41,3.69,41l15.37,2.33,18.81-3.57,13.88-14.08S538,221.7,535.06,221.05Z"/><path class="cls-81" d="M516.25,269.81s-32.48,26.72-43.57,41.75c-29.76,18.49-45.72,35.6-52.51,34.24-.69-1.23-6.23-15.61-10.32-18.48-1.41-1-4.85.33-5.63,2.87-2,6.14,1.93,19.5,1.75,25.34s-3.31,13.66-2.74,17.17,4.28,4.79,7,4.41,9.23-9.36,12.83-11.66c23.34-15,42.3-18.37,49.82-23.47s14.37-14.86,20.79-20.11,25.47-9.91,49.68-25.34c2.16-3.55,6.52-10.65,6.52-10.65l-14.83-22.36Z"/><path class="cls-83" d="M578.89,271.37c-14,14.51-35.52,25.16-35.52,25.16s-3-26-27.12-26.72c3.69-4.75,18.81-14.66,18.81-14.66s-5.19-17.51,0-34.1l17.63-3.11,28.52,24,7,19.83S581.82,267.93,578.89,271.37Z"/><path class="cls-81" d="M657.47,191.7c-8.46,7.52-6,17.94-6,17.94L638,210.89l-19.71-9.59-4.93-7.75,6.55-1.85a25.56,25.56,0,0,0,6-.43c2.21-.73,4.09-2.64,5.64-6.14,1.56-2.66,15-11.54,15-11.54l13.44,3.63v8.85S658.45,190.8,657.47,191.7Z"/><path class="cls-84" d="M655.77,217s-4.16-4.9-4.33-7.38c-16.14-10.89-29.37-11.1-32.48-13.82s-.58-3.36,1-4.12a59.85,59.85,0,0,1-15.75-5.6,36.56,36.56,0,0,0-28.92,13.18c-2.13,1.34-40.2,21.77-40.2,21.77s36.3,16.85,42.52,28,1.31,22.32,1.31,22.32,5.81-4.94,16.52-9.6,33-9.61,33-9.61Z"/><path class="cls-81" d="M654,146.62s-9.56,3-14.62,9.13c-.29.88-9.34,1.85-10.3,2.92s1.55,5.47,1.55,5.47-8,8.53-8.11,10.94,9.6,10.63,10.19,10.88c8.43,3.64,19.13-4.52,19.13-4.52s2.78,4.27,10.11,1.74c1.31-.45,8.76-9.52,8.76-9.52l-4.81-23Z"/><path class="cls-85" d="M654,146.62c6.75,3.8,8.12,6.95,5.81,11.47a22,22,0,0,0-2.44,11.09c.23,1.42,7.1-1.29,8.26,2.85s-6.54,11.51-8.45,12.61c-.74.43-.25,6.76.29,7.06,2.67,1.53,18.36-4.57,20-14,.23-.83.43-1.72.6-2.62a23.87,23.87,0,0,0-4.19-18.72C670.31,151.55,663.84,143.73,654,146.62Z"/><path class="cls-81" d="M662.72,224.23c-3.47-4.68-7.68-8.51-11.84-9.82a10.22,10.22,0,0,0-8.38,9S618,249.63,616.44,252.16c-7.4-12.18-14.6-19.56-19.86-29.68-1.87-3.63-11.47-13.81-13.6-14.4s-11,.19-12.06,1.75c-3.9,5.45-1,10.71,1.35,10.9,2.72,4.07,15.91,9.91,15.91,9.91s8.8,37.16,16,42.21c4.78,3.37,15.36,4.47,19.14,1C642.19,252.5,655,244.55,655,244.55S669.33,233,662.72,224.23Z"/><path class="cls-8" d="M735.92,338c-.63,3.27-1.3,6.63-3.14,9.41-3.26,5-9.39,7-15,8.88a367.79,367.79,0,0,0-130.16,75.51c-19.36,17.42-37.65,37.42-62,46.75-17.16,6.58-35.93,7.26-54.3,7.37-6.39,0-12.88,0-18.95-2a38.38,38.38,0,0,1-12.26-6.91c-8.13-6.57-14.71-15.72-22.57-22.88-33.29-30.35-89.81-24.72-120.52-57.69-10.22-11-16.78-25.55-29.26-33.84-11.41-7.57-27.94-10.33-32.74-23.16s5.72-25.65,15.73-34.77a459,459,0,0,1,68.8-51.8c13.41-8.24,27.22-15.79,41.12-23.14s28.1-14.59,42-22.12,27.51-15.28,40.67-23.9c6.36-4.17,12.3-9.14,18.78-13.07,4.37-2.63,10.88-1.81,15.66-.86,13.71,2.74,24.64,13,36.82,19.16q2.26,1.16,4.62,2.13c18.41,7.57,39.28,3.7,59.12,5.33a106.44,106.44,0,0,1,66.94,31.65c7.23,7.46,13.4,16,21.62,22.37,21.07,16.28,54.36,17.33,67.19,40.66a35.79,35.79,0,0,1,2.81,6.58C740.94,310.33,738.51,324.74,735.92,338Z"/><path class="cls-86" d="M735.92,338c-.63,3.27-1.3,6.63-3.14,9.41-3.26,5-9.39,7-15,8.88a367.79,367.79,0,0,0-130.16,75.51c-19.36,17.42-37.65,37.42-62,46.75-17.16,6.58-35.93,7.26-54.3,7.37-6.39,0-12.88,0-18.95-2a38.38,38.38,0,0,1-12.26-6.91l30.31-25.5,266.5-153.85C740.94,310.33,738.51,324.74,735.92,338Z"/><polygon class="cls-76" points="475.39 541.86 470.44 544.71 470.44 443.91 475.39 441.06 475.39 541.86"/><polygon class="cls-76" points="470.44 443.91 224.53 303.35 229.49 300.5 475.39 441.06 470.44 443.91"/><polygon class="cls-16" points="470.44 544.71 224.53 404.16 224.53 303.35 470.44 443.91 470.44 544.71"/><path class="cls-86" d="M464,371.31c8.54-4.05,16.92-8.86,23.31-15.82,4.66-5.06,8.15-11.13,13-16,11.95-11.82,30.09-14.45,44.48-23.14,8-4.82,14.79-11.49,23-15.81,13.74-7.18,30.33-7.23,44.1-14.33s23.29-20.55,33-32.8c1.21-1.53,2.53-3.12,4.37-3.77,4.43-1.58,8.87,3.55,8.62,8.24s-3.43,8.64-6.34,12.34a209.34,209.34,0,0,0-26.6,44.1c-3.73,8.36-7.19,17.35-14.28,23.13-4.14,3.37-9.19,5.36-14.16,7.3l-27.46,10.73c-6,2.33-12.1,4.69-18.5,4.62-10-.12-21.73-5.76-29.1,1.07-2,1.81-3.2,4.26-5,6.23-9.26,10.13-28.28,3.54-38.06,13.18C469.27,389.7,473,409,461,414c-6.29,2.65-13.48-.68-19-4.71-4.51-3.3-8.77-7.24-14.07-9.25-2.89-1.1-7.92-1.17-7-5.55.81-3.7,4.67-6.83,7.6-8.87,4.47-3.12,9.58-4.26,14.68-6A188.36,188.36,0,0,0,464,371.31Z"/><path class="cls-86" d="M378.14,300.81c4.8-14.28,8.34-30.06,19.58-40.09,17.21-15.35,44.33-10.56,65.42-19.87,10.53-4.65,19.23-12.7,29.61-17.68,9.7-4.66,20.48-6.45,30.94-9,6-1.46,13-4.35,13.82-10.43-15.43-4.25-31.44,2.74-46.17,9a571.67,571.67,0,0,1-69.08,24.11c-17.18,4.79-36.26,9.92-45.93,24.9-8.59,13.33-7.49,31.51-17.25,44-6.57,8.41-17.77,13.9-20.14,24.3-1.45,6.39.91,12.8,2.42,18.95.39,1.59.74,3.19,1,4.81.17,1.2-.13,3.34.47,4.39,1.71,3,4.53-1.54,5.53-2.79a178.9,178.9,0,0,0,29.8-54.59Z"/><g class="cls-2"><polygon class="cls-70" points="753.46 514.2 753.32 563.67 727.14 548.56 727.28 499.08 753.46 514.2"/><polygon class="cls-87" points="727.28 499.08 727.14 548.56 696.61 566.3 696.75 516.83 727.28 499.08"/><path class="cls-70" d="M764.66,527.46l-.14,49.48c0-4.27-3.85-9-11.2-13.27l.14-49.47C760.81,518.44,764.68,523.2,764.66,527.46Z"/><polygon class="cls-70" points="696.72 550.87 696.58 600.34 667.21 583.39 667.35 533.91 696.72 550.87"/><polygon class="cls-87" points="667.35 533.91 667.21 583.39 633.96 602.71 634.1 553.23 667.35 533.91"/><path class="cls-70" d="M708.25,565l-.14,49.47c0-4.63-4-9.79-11.54-14.16l.15-49.47C704.29,555.24,708.26,560.4,708.25,565Z"/><polygon class="cls-69" points="756.48 566.77 756.34 616.24 754.08 617.56 754.22 568.09 756.48 566.77"/><path class="cls-87" d="M830.67,537.93l-.14,49.48c0,8.58-5.73,16.48-17,23.05-16.74,9.73-39.42,10.78-57.15,5.78l.14-49.47c17.73,5,40.41,3.94,57.15-5.78C824.94,554.41,830.65,546.52,830.67,537.93Z"/><polygon class="cls-70" points="639.56 596.21 639.42 645.69 551.55 594.95 551.69 545.48 639.56 596.21"/><path class="cls-70" d="M761.52,583.69l-.14,49.47c0,7.94-5.42,16-16.84,22.65-27.82,16.16-67.1,11.82-105.12-10.12l.14-49.48c38,21.95,77.3,26.29,105.12,10.12C756.1,599.7,761.5,591.63,761.52,583.69Z"/><path class="cls-69" d="M754.22,568.09c11.87,11.82,9.68,27.07-9.54,38.24-27.82,16.17-67.1,11.83-105.12-10.12l-87.87-50.73,161.94-94.11,83.54,48.24c38.48,22.21,43.6,45.61,16.46,61.38-16.74,9.72-39.42,10.78-57.15,5.78Zm-90.75,2.1c12.75,7.36,29.32,8.81,39,3.15,9.5-5.52,7-15.11-5.79-22.47l-29.37-17L634.1,553.23l29.37,17m63.81-71.11-30.53,17.75,26.18,15.11c12.29,7.1,27.28,8.41,36.32,3.16s6.51-13.8-5.79-20.9l-26.18-15.12"/></g><g class="cls-2"><polygon class="cls-88" points="864.98 613.96 864.84 663.43 862.57 662.11 862.71 612.64 864.98 613.96"/><polygon class="cls-89" points="944.69 584.78 944.55 634.25 876.71 716.66 876.85 667.19 944.69 584.78"/><polygon class="cls-89" points="862.71 612.64 862.57 662.11 765.54 718.5 765.68 669.03 862.71 612.64"/><polygon class="cls-9" points="765.68 669.03 765.54 718.5 719.1 691.69 719.24 642.22 765.68 669.03"/><polygon class="cls-88" points="973.8 676.52 973.66 725.99 971.38 724.68 971.52 675.2 973.8 676.52"/><polygon class="cls-9" points="839.66 711.74 839.52 761.22 802.42 739.79 802.56 690.32 839.66 711.74"/><polygon class="cls-89" points="971.52 675.2 971.38 724.68 839.52 761.22 839.66 711.74 971.52 675.2"/><polygon class="cls-89" points="1084.92 665.74 1084.78 715.21 922.84 809.32 922.98 759.85 1084.92 665.74"/><polygon class="cls-8" points="1084.92 665.74 922.98 759.85 876.54 733.03 973.8 676.52 971.52 675.2 839.66 711.74 802.56 690.32 864.98 613.96 862.71 612.64 765.68 669.03 719.24 642.22 881.18 548.11 944.69 584.78 876.85 667.19 879.13 668.5 1020.27 628.41 1084.92 665.74"/><polygon class="cls-9" points="922.98 759.85 922.84 809.32 876.4 782.51 876.54 733.03 922.98 759.85"/></g><g class="cls-2"><polygon class="cls-70" points="1150.48 743.42 1150.34 792.89 1124.62 778.04 1124.76 728.57 1150.48 743.42"/><polygon class="cls-90" points="1124.76 728.57 1124.62 778.04 1081.42 803.14 1081.56 753.67 1124.76 728.57"/><path class="cls-70" d="M1164,759.89l-.14,49.47c0-5.55-4.78-11.42-13.53-16.47l.14-49.47C1159.23,748.47,1164,754.34,1164,759.89Z"/><polygon class="cls-90" points="1062.18 778.38 1062.04 827.85 1050.43 821.15 1050.57 771.67 1062.18 778.38"/><polygon class="cls-90" points="1050.57 771.67 1050.43 821.15 997.06 852.17 997.2 802.69 1050.57 771.67"/><polygon class="cls-70" points="997.2 802.69 997.06 852.17 949.02 824.43 949.16 774.96 997.2 802.69"/><polygon class="cls-90" points="1114.06 803.61 1113.92 853.09 1111.65 852.3 1111.79 802.82 1114.06 803.61"/><path class="cls-70" d="M1226.43,768.81l-.14,49.47c0,10.89-7.34,21.24-22.09,29.81-26.46,15.38-62.31,16.17-90.28,5l.14-49.48c28,11.17,63.82,10.39,90.28-5C1219.09,790.05,1226.4,779.7,1226.43,768.81Z"/><polygon class="cls-90" points="1111.79 802.82 1111.65 852.3 1102.68 913.15 1102.83 863.68 1111.79 802.82"/><path class="cls-91" d="M1111.79,802.82l-9,60.86-53.5-30.89,12.85-54.41-11.61-6.71-53.37,31-48-27.73,161.94-94.11,82.18,47.45c39.84,23,44.08,51.13,11.06,70.32-26.46,15.38-62.31,16.16-90.28,5Zm-4.51-34.3c15.25,8.81,34.78,10.65,48.35,2.76,13.34-7.75,10.1-19.06-5.15-27.86l-25.72-14.86-43.2,25.11,25.72,14.85"/><polygon class="cls-70" points="1102.83 863.68 1102.68 913.15 1049.19 882.26 1049.33 832.79 1102.83 863.68"/></g><path class="cls-6" d="M1365.62,1062.44,1188.66,960c-5.82-3.37-8.52-7.9-8.33-12.63l0,0,.07-25.68,9.84,11.53c.64-.42,1.28-.84,2-1.25l362-208.33c14.37-8.27,36.09-9.14,48.52-2l174.48,101c3.53-3.87,10.93-12,10.93-12L1788,835.8h0c.27,5.67-3.76,11.7-11.88,16.37l-362,208.33C1399.77,1068.77,1378.05,1069.64,1365.62,1062.44Z"/><path class="cls-8" d="M1554.19,723.62c14.37-8.27,36.09-9.14,48.52-2l174.48,101c3.53-3.87,10.93-12,10.93-12L1788,835.8h0c.27,5.67-3.76,11.7-11.88,16.37l-362,208.33c-7.5,4.32-17,6.6-26.13,6.79l.35-248.23Z"/><path class="cls-92" d="M1779.75,798.33l-177-102.47c-12.43-7.2-34.16-6.33-48.53,1.94l-362,208.34c-14.38,8.27-16,20.81-3.53,28l177,102.47c12.43,7.2,34.15,6.33,48.53-1.94l362-208.34C1790.6,818.07,1792.17,805.53,1779.75,798.33Z"/><path class="cls-9" d="M1365.56,1039.36l-177-102.47c-6.41-3.72-9.07-8.85-8.19-14.08.31,4.25,3,8.28,8.32,11.34l177,102.47c12.43,7.2,34.15,6.33,48.53-1.94l362-208.34c7-4,10.89-9,11.72-13.93.42,5.75-3.59,11.92-11.85,16.67l-362,208.34C1399.71,1045.69,1378,1046.56,1365.56,1039.36Z"/><path class="cls-89" d="M1766.12,802.37l-170-98.46c-9.24-5.35-25.39-4.71-36.07,1.44L1203.15,910.73c-10.69,6.14-11.86,15.46-2.62,20.81l170,98.47c9.23,5.35,25.38,4.7,36.06-1.44L1763.5,823.19C1774.18,817,1775.35,807.72,1766.12,802.37Z"/><ellipse class="cls-93" cx="1665.65" cy="753.26" rx="7.1" ry="4.14"/><path class="cls-93" d="M1260.06,991.53h0a2.14,2.14,0,0,0,1,1.84l19,11.36a2.14,2.14,0,0,0,3.24-1.87v-.4a2.14,2.14,0,0,0-1.07-1.83l-19-11A2.14,2.14,0,0,0,1260.06,991.53Z"/><ellipse class="cls-94" cx="1483.26" cy="870.4" rx="193.46" ry="69.57" transform="translate(-236.48 858.24) rotate(-30)"/><path class="cls-81" d="M1575.17,724.25l-5.64,4.12-11.37,8.28s-43.65-19.75-61.57-17.45-26.32-7.36-26.32-7.36l5.81-7.9,11.77-16c17-10.1,36.3-5.51,49.17,4.14s31.71,21.6,31.71,21.6Z"/><path class="cls-95" d="M1569.53,728.37l-11.37,8.28s-43.65-19.75-61.57-17.45-26.32-7.36-26.32-7.36l5.81-7.9c9.59.07,23.21.55,34.3,2.4C1525.22,708.81,1552.18,720,1569.53,728.37Z"/><path class="cls-81" d="M1470.8,736.65C1464,748.71,1458,757.34,1458,757.34c9.19,24.35,5.51,52.84,0,68.46s-11,34.47-11,34.47h-19.3l-2.21-86.39a54.72,54.72,0,0,1-1.69-9.89c-2.78-31.91,15.39-76,15.39-76l48.7,8.73C1484.68,710,1477.39,725,1470.8,736.65Z"/><path class="cls-95" d="M1458,757.34c9.19,24.35,5.51,52.84,0,68.46s-11,34.47-11,34.47h-19.3l-2.21-86.39a54.72,54.72,0,0,1-1.69-9.89c10,3.25,12.68-.73,21.83-9.87,5.05-5.06,15.6-11.82,25.21-17.47C1464,748.71,1458,757.34,1458,757.34Z"/><path class="cls-6" d="M1425.59,594.67s-2.75,49.63,16.09,72.37l-4.37,22.52s15.85,15.39,39.52,16.54,24.81-2.29,24.81-2.29a195.57,195.57,0,0,1,8-27.12c5.06-12.86,23-54.22,6.9-75.13Z"/><polygon class="cls-95" points="1517.06 607.16 1509.68 612.59 1506.7 623.62 1517.06 626.84 1519.37 610.99 1517.06 607.16"/><path class="cls-81" d="M1578.38,552.55c-6.74,10.11-40.44,63.41-40.44,63.41l-2.29,15.47a7.76,7.76,0,0,1-1.88,4.4,4.85,4.85,0,0,1-2.72,1.42c-4.29.77-21.45,0-21.45,0a7.07,7.07,0,0,1-4.43-4.9c-.07-.32-.14-.67-.2-1-.67-3.77-1.18-9.38-1.18-9.38s.61-2.6,4.74-1.07a18.28,18.28,0,0,0,6.74,1.37l-.46-6.12s-1.53-7.36,3.38-9.65,12.4-1.53,12.4-1.53,3-22.86,11.67-42.84c3-7,6.77-13.69,11.31-18.89,0,0-15.4-14.25-23.21-28,0,0-3.9,3.68-8.27,12.63h-20l-82.48-21.36-1.17,1.38h0l-19.74,23.42,8.73,14.7,13.33,1.39a6.93,6.93,0,0,1,3.78,1.22,9.5,9.5,0,0,1,2.61,2.59,13.05,13.05,0,0,1,1.19,2.15l4.13,14.25s-.22,3.22-4.13,3.68a5.27,5.27,0,0,1-3.1,4.07,5.69,5.69,0,0,1-1.26.29,7.61,7.61,0,0,1-6.89,4.14s-2.31.92-6.21-1.15-10.57-6.67-10.57-6.67l-3-13.09-23.67-12.63s-9.42-4.6-5.52-17,24.82-45.72,26.42-55.83,3-23,16.55-30.09a52.81,52.81,0,0,1,16-5.12,70.64,70.64,0,0,1,12-.92c1.21,0,1.91.06,1.91.06l42.25,2.53a118.49,118.49,0,0,0,16.07,9.95,77.3,77.3,0,0,0,12.73,5.3l1.68.53c14.07,4.45,27.21,10.8,41,32a400.92,400.92,0,0,1,25.43,46.26S1585.12,542.44,1578.38,552.55Z"/><path class="cls-95" d="M1444.59,449.5s-.08,6.55,2.68,11.46c1.71,3.05,2,10.07,1.88,14.94a5,5,0,0,0,5,5.12h0a5,5,0,0,0,4.62-3,143.31,143.31,0,0,1,9.43-18.28c5.36-8.27,15-19.91,15-19.91l-.76-12.26Z"/><path class="cls-95" d="M1572.86,543.43a58.47,58.47,0,0,0-30.6,18.67c3-7,6.77-13.69,11.31-18.89,0,0-15.4-14.25-23.21-28,0,0-3.9,3.68-8.27,12.63h-19.32c1.75-5.87,4.37-14,6.46-17.8,3.44-6.21,7.69-8,11.48-7.13s5.4,5.4,18.62,4.37C1539.33,507.25,1545.07,535.16,1572.86,543.43Z"/><path class="cls-95" d="M1533.77,635.83a4.85,4.85,0,0,1-2.72,1.42c-4.29.77-21.45,0-21.45,0a7.07,7.07,0,0,1-4.43-4.9c-.07-.32-.14-.67-.2-1,10.28-.07,13.9-2,13.9-2Z"/><path class="cls-95" d="M1418.45,507.83h0l-19.74,23.42s-5.06-5.28-12-5.28c0,0,11.26-10.11,14.71-17s1.31-29.08,12.49-33.84C1413.27,485.3,1415.78,497,1418.45,507.83Z"/><path class="cls-95" d="M1432.48,567.56s-.22,3.22-4.13,3.68a5.27,5.27,0,0,1-3.1,4.07,5.69,5.69,0,0,1-1.26.29,7.61,7.61,0,0,1-6.89,4.14s-2.31.92-6.21-1.15-10.57-6.67-10.57-6.67c9,.11,11.72-1.83,14.93-4.24s5.18-3.57,8-1.26,4.23,1.83,4.23,1.83c4.23-1.38,1.51-5.74-1.25-10.34-1.5-2.5-.42-5,.88-6.75a13.05,13.05,0,0,1,1.19,2.15Z"/><path class="cls-96" d="M1516.58,601.56s-7.59,12.64-25,18.15-38.59-1.15-50.52-7.57a33.34,33.34,0,0,1-15.42-17.47s-.12-8.48-.34-19.36a5.27,5.27,0,0,0,3.1-4.07c3.91-.46,4.13-3.68,4.13-3.68l-4.13-14.25a13.05,13.05,0,0,0-1.19-2.15,9.5,9.5,0,0,0-2.61-2.59c-.24-6.71-.5-12.56-.79-16.16-.53-6.35-3-15.1-5.31-24.57h0l1.17-1.38,82.48,21.36h20s-10.8,29.41-13.1,40.44S1516.58,601.56,1516.58,601.56Z"/><path class="cls-96" d="M1522,527.81H1502.1l-82.48-21.36-1.17,1.38c-2.67-10.79-5.18-22.53-4.49-32.69,0-.6.09-1.19.15-1.78,1.48-13.88,8.93-28.25,13-35.21a70.64,70.64,0,0,1,12-.92c-1.07,3.32-2.43,7.43-4.09,12.24-4.75,13.78-4.29,29.41,8.58,38.44s28.64-1.22,35.53-8.88c5.37-6,15.82-22.29,20.21-29.26a77.3,77.3,0,0,0,12.73,5.3l1.68.53c-17.91,20.26-13,53.72-10,62.79S1520.72,527.81,1522,527.81Z"/><path class="cls-85" d="M1432,392.25a11.92,11.92,0,0,1,.84-6.19c1.38-3.37,8.12-13.18,16.08-17.92s31.1-6.13,41.82,10.72-2.76,42.73-2.76,42.73l-29.41,10.26Z"/><path class="cls-81" d="M1489.46,419.6a6.52,6.52,0,0,1-4.82,6c-2.07,12.86-23.21,27.56-28.49,28.95a14.11,14.11,0,0,1-5.43.54c-4.67-.6-10.18-4.76-15-20.54a105,105,0,0,1-4.42-28.94,84.5,84.5,0,0,1,.74-13.34c.91-1.71,5-.56,6.2,4.6,1.84,7.93,13.56,8.27,17.92,4s8.2-2.93,9-.19c1.18,3.86,2.71,5.47,6.92,8,2.34,1.39,3.53,5,4.14,8a2.16,2.16,0,0,0,3.69,1.06l1.79-1.91s.31-6.59,4.13-6.59S1489.92,414.54,1489.46,419.6Z"/><path class="cls-95" d="M1450.72,455.07c-4.67-.6-10.18-4.76-15-20.54a105,105,0,0,1-4.42-28.94,20.39,20.39,0,0,1,6.94,18.84c-1.86,12.22-1.61,10.79,1.72,12.51C1440,436.94,1441,449.68,1450.72,455.07Z"/><path class="cls-97" d="M1426.05,865.78V844.19a48.58,48.58,0,0,0,11.72,2.52,32.79,32.79,0,0,0,14.11-2.52L1450,859.35l.23,14-15.63,11.26Z"/><path class="cls-6" d="M1451.09,894.27c-7.11,4.13-7.81,10.11-10.79,14.93s-16.54,22.29-37.68,21.37c-10.51-.45-14-5.79-14.09-12s3.15-13.3,6-17c5.75-7.36,14.71-13.79,19.31-21.6s5.28-17.23,5.28-17.23,9.42-3.45,18.61,5.28c0,0,2.76,4.82,6.21,3.9s6-12.63,6-12.63l5.42,23.56.29,1.25S1458.22,890.13,1451.09,894.27Z"/><path class="cls-97" d="M1451.09,894.27c-7.11,4.13-7.81,10.11-10.79,14.93s-16.54,22.29-37.68,21.37c-10.51-.45-14-5.79-14.09-12,1.64,3.48,4.81,6.67,10.88,6.67,13.31,0,29.4-9.19,35.6-21.37,6-11.87,10.92-16.54,20.36-21l.29,1.25S1458.22,890.13,1451.09,894.27Z"/><path class="cls-6" d="M1595.15,746.54c-5.75,6-11.49,19.53-17,29.87-5.18,9.72-23.15,27.34-31.58,17.22a13,13,0,0,1-1.5-2.29c-7.59-14.71,10.34-35.15,12.41-42.27s-2.91-14-2.91-14l8.65-21.64,27.34,1.62s5.28,0,9.88,9c.25.49.48,1,.68,1.47C1604.57,733.82,1600.58,740.9,1595.15,746.54Z"/><path class="cls-97" d="M1595.15,746.54c-5.75,6-11.49,19.53-17,29.87-5.18,9.72-23.15,27.34-31.58,17.22,8.77.27,17.91-2.85,24.92-13.55,8.29-12.63,15.39-33.08,20.22-41.35a96.37,96.37,0,0,1,9.41-13.23C1604.57,733.82,1600.58,740.9,1595.15,746.54Z"/><path class="cls-97" d="M1554.57,735.09s6.81-6.59,13.93,3.64c0,0,1.62-14.93.23-25l-8.34-5.41s-2.16,19.82-12.88,23.87Z"/><polygon class="cls-13" points="1419.67 42.28 1402.41 188.46 1487.13 178.68 1419.67 42.28"/><path class="cls-13" d="M1419.36,89.12S1309.22-7.21,1198.2,109.68c0,0,108.71-61.75,210.8,49.43Z"/><polygon class="cls-13" points="1283.81 276.51 1283.81 119.97 1199.14 168.89 1283.81 276.51"/><path class="cls-13" d="M1275.33,237.38s109.7,93.23,220.72-23.66c0,0-115,51.67-217.09-59.5Z"/><path class="cls-98" d="M1245.09,241.93c-78.9-36.64-133.75-101.18-171.39-166.81V175.81c0,5.23,3.18,11.29,7.1,13.56l545.8,315.12c3.92,2.26,7.1-.14,7.1-5.36V153.5C1552.13,263.31,1408.75,317.94,1245.09,241.93Z"/></g></g></g></svg>